<?xml version="1.0" encoding="utf-8"?>
<!-- Generator: Adobe Illustrator 24.1.0, SVG Export Plug-In . SVG Version: 6.00 Build 0)  -->
<svg version="1.1" id="Layer_1" xmlns="http://www.w3.org/2000/svg" xmlns:xlink="http://www.w3.org/1999/xlink" x="0px" y="0px"
	 viewBox="0 0 539.96 525.44" style="enable-background:new 0 0 539.96 525.44;" xml:space="preserve">
<style type="text/css">
	.st0{clip-path:url(#SVGID_2_);fill:#CECECE;}
	.st1{clip-path:url(#SVGID_2_);fill:#3B3B3B;}
	.st2{clip-path:url(#SVGID_2_);fill:#CACACA;}
	.st3{clip-path:url(#SVGID_2_);fill:#121212;}
	.st4{clip-path:url(#SVGID_2_);fill:#DFDFDF;}
	.st5{clip-path:url(#SVGID_2_);fill:#505050;}
	.st6{clip-path:url(#SVGID_2_);fill:#656565;}
	.st7{clip-path:url(#SVGID_2_);fill:#0A0A0A;}
	.st8{clip-path:url(#SVGID_2_);fill:#1D1D1D;}
	.st9{clip-path:url(#SVGID_2_);fill:#B9B9B9;}
	.st10{clip-path:url(#SVGID_2_);fill:#A8A8A8;}
	.st11{clip-path:url(#SVGID_2_);fill:#464646;}
	.st12{clip-path:url(#SVGID_2_);fill:#919191;}
	.st13{clip-path:url(#SVGID_2_);fill:#212121;}
	.st14{clip-path:url(#SVGID_2_);fill:#282828;}
	.st15{clip-path:url(#SVGID_2_);fill:#898989;}
	.st16{clip-path:url(#SVGID_2_);fill:#616161;}
	.st17{clip-path:url(#SVGID_2_);fill:#D3D3D3;}
	.st18{clip-path:url(#SVGID_2_);fill:#6D6D6D;}
	.st19{clip-path:url(#SVGID_2_);fill:#5F5F5F;}
	.st20{clip-path:url(#SVGID_2_);fill:#D7D7D7;}
	.st21{clip-path:url(#SVGID_2_);fill:#272727;}
	.st22{clip-path:url(#SVGID_2_);fill:#D2D2D2;}
	.st23{clip-path:url(#SVGID_2_);fill:#FBFBFB;}
	.st24{clip-path:url(#SVGID_2_);fill:#E7E7E7;}
	.st25{clip-path:url(#SVGID_2_);fill:#B2B2B2;}
	.st26{clip-path:url(#SVGID_2_);fill:#A0A0A0;}
	.st27{clip-path:url(#SVGID_2_);fill:#B5B5B5;}
	.st28{clip-path:url(#SVGID_2_);fill:#9F9F9F;}
	.st29{clip-path:url(#SVGID_2_);fill:#B8B8B8;}
	.st30{clip-path:url(#SVGID_2_);fill:#D4D4D4;}
	.st31{clip-path:url(#SVGID_2_);fill:#ACACAC;}
	.st32{clip-path:url(#SVGID_2_);fill:#888888;}
	.st33{clip-path:url(#SVGID_2_);fill:#8F8F8F;}
	.st34{clip-path:url(#SVGID_2_);fill:#ABABAB;}
	.st35{clip-path:url(#SVGID_2_);fill:#757575;}
	.st36{clip-path:url(#SVGID_2_);fill:#909090;}
	.st37{clip-path:url(#SVGID_2_);fill:#D0D0D0;}
	.st38{clip-path:url(#SVGID_2_);fill:#717171;}
	.st39{clip-path:url(#SVGID_2_);fill:#858585;}
	.st40{clip-path:url(#SVGID_2_);fill:#767676;}
	.st41{clip-path:url(#SVGID_2_);fill:#989898;}
	.st42{clip-path:url(#SVGID_2_);fill:#C6C6C6;}
	.st43{clip-path:url(#SVGID_2_);fill:#969696;}
	.st44{clip-path:url(#SVGID_2_);fill:#999999;}
	.st45{clip-path:url(#SVGID_2_);fill:#929292;}
	.st46{clip-path:url(#SVGID_2_);fill:#979797;}
	.st47{clip-path:url(#SVGID_2_);fill:#AEAEAE;}
	.st48{clip-path:url(#SVGID_2_);fill:#AFAFAF;}
	.st49{clip-path:url(#SVGID_2_);fill:#CCCCCC;}
	.st50{clip-path:url(#SVGID_2_);fill:#1F1F1F;}
	.st51{clip-path:url(#SVGID_2_);fill:#252525;}
	.st52{clip-path:url(#SVGID_2_);fill:#373737;}
	.st53{clip-path:url(#SVGID_2_);fill:#202020;}
	.st54{clip-path:url(#SVGID_2_);fill:#2A2A2A;}
	.st55{clip-path:url(#SVGID_2_);fill:#3F3F3F;}
	.st56{clip-path:url(#SVGID_2_);fill:#ECECEC;}
	.st57{clip-path:url(#SVGID_2_);fill:#6A6A6A;}
	.st58{clip-path:url(#SVGID_2_);fill:#7E7E7E;}
	.st59{clip-path:url(#SVGID_2_);fill:#535353;}
	.st60{clip-path:url(#SVGID_2_);fill:#D1D1D1;}
	.st61{clip-path:url(#SVGID_2_);fill:#868686;}
	.st62{clip-path:url(#SVGID_2_);fill:#9A9A9A;}
	.st63{clip-path:url(#SVGID_2_);fill:#787878;}
	.st64{clip-path:url(#SVGID_2_);fill:#7F7F7F;}
	.st65{clip-path:url(#SVGID_2_);fill:#8A8A8A;}
	.st66{clip-path:url(#SVGID_2_);fill:#5B5B5B;}
	.st67{clip-path:url(#SVGID_2_);fill:#7C7C7C;}
	.st68{clip-path:url(#SVGID_2_);fill:#686868;}
	.st69{clip-path:url(#SVGID_2_);fill:#808080;}
	.st70{clip-path:url(#SVGID_2_);fill:#A3A3A3;}
	.st71{clip-path:url(#SVGID_2_);fill:#5A5A5A;}
	.st72{clip-path:url(#SVGID_2_);fill:#545454;}
	.st73{clip-path:url(#SVGID_2_);fill:#646464;}
	.st74{clip-path:url(#SVGID_2_);fill:#575757;}
	.st75{clip-path:url(#SVGID_2_);fill:#8E8E8E;}
	.st76{clip-path:url(#SVGID_2_);fill:#676767;}
	.st77{clip-path:url(#SVGID_2_);fill:#B1B1B1;}
	.st78{clip-path:url(#SVGID_2_);fill:#636363;}
	.st79{clip-path:url(#SVGID_2_);fill:#A7A7A7;}
	.st80{clip-path:url(#SVGID_2_);fill:#C9C9C9;}
	.st81{clip-path:url(#SVGID_2_);fill:#191919;}
	.st82{clip-path:url(#SVGID_2_);fill:#424242;}
	.st83{clip-path:url(#SVGID_2_);fill:#313131;}
	.st84{clip-path:url(#SVGID_2_);fill:#3C3C3C;}
	.st85{clip-path:url(#SVGID_2_);fill:#404040;}
	.st86{clip-path:url(#SVGID_2_);fill:#2F2F2F;}
	.st87{clip-path:url(#SVGID_2_);fill:#666666;}
	.st88{clip-path:url(#SVGID_2_);fill:#363636;}
	.st89{clip-path:url(#SVGID_2_);fill:#4D4D4D;}
	.st90{clip-path:url(#SVGID_2_);fill:#484848;}
	.st91{clip-path:url(#SVGID_2_);fill:#585858;}
	.st92{clip-path:url(#SVGID_2_);fill:#454545;}
	.st93{clip-path:url(#SVGID_2_);fill:#4F4F4F;}
	.st94{clip-path:url(#SVGID_2_);fill:#3A3A3A;}
	.st95{clip-path:url(#SVGID_2_);fill:#707070;}
	.st96{clip-path:url(#SVGID_2_);fill:#6E6E6E;}
	.st97{clip-path:url(#SVGID_2_);fill:#595959;}
	.st98{clip-path:url(#SVGID_2_);fill:#5C5C5C;}
	.st99{clip-path:url(#SVGID_2_);fill:#6B6B6B;}
	.st100{clip-path:url(#SVGID_2_);fill:#797979;}
	.st101{clip-path:url(#SVGID_2_);fill:#7B7B7B;}
	.st102{clip-path:url(#SVGID_2_);fill:#1C1C1C;}
	.st103{clip-path:url(#SVGID_2_);fill:#393939;}
	.st104{clip-path:url(#SVGID_2_);fill:#383838;}
	.st105{clip-path:url(#SVGID_2_);fill:#4B4B4B;}
	.st106{clip-path:url(#SVGID_2_);fill:#ADADAD;}
	.st107{clip-path:url(#SVGID_2_);fill:#494949;}
	.st108{clip-path:url(#SVGID_2_);fill:#5D5D5D;}
	.st109{clip-path:url(#SVGID_2_);fill:#606060;}
	.st110{clip-path:url(#SVGID_2_);fill:#2D2D2D;}
	.st111{clip-path:url(#SVGID_2_);fill:#818181;}
	.st112{clip-path:url(#SVGID_2_);fill:#8D8D8D;}
</style>
<g>
	<defs>
		<path id="SVGID_1_" d="M539.96,262.72C545.07,613.01-5.16,613.01,0,262.7C-5.11-87.57,545.12-87.57,539.96,262.72z"/>
	</defs>
	<use xlink:href="#SVGID_1_"  style="overflow:visible;fill:#FFFFFF;"/>
	<clipPath id="SVGID_2_">
		<use xlink:href="#SVGID_1_"  style="overflow:visible;"/>
	</clipPath>
	<rect x="-13.37" y="-11.84" class="st0" width="572.74" height="547.74"/>
	<path class="st1" d="M436.59,377.27c-1.51,72.37-10.76,9.68-6.49-16.41C434.82,335.29,448.24,368.64,436.59,377.27z"/>
	<path class="st1" d="M271.46,277.28c-1.51,72.37-10.76,9.68-6.49-16.41C269.7,235.3,283.12,268.65,271.46,277.28z"/>
	<path class="st1" d="M93.85,215.02c-1.26,72.37-9,9.68-5.43-16.41C92.37,173.03,103.6,206.38,93.85,215.02z"/>
	<path class="st1" d="M156.11,261.22c-1.26,72.37-9,9.68-5.43-16.41C154.64,219.24,165.86,252.59,156.11,261.22z"/>
	<path class="st2" d="M511.02,601.75c7.82,37.5-150.18,8.23-184.64,16.99c6.76-37.46,49.12-56.3,71.65-85.69
		c12.13-8.15,66.46-94.07,65.99-77.53c-15.19,30.51,7.38,20.03-17.58,35.85c10.49,6.23,4.96,16.32,2.35,26.68
		c1.11,5.47-11.07,5.39-4.53,9.65c2.97,1.87,5.13,3.91,2.13,7.51c-5.26,8.69,14.06-1.12,16.81,12.02c4.46,4.39,4.12,7.69,0.87,12.84
		c5.4-3.73,16.42,5.21,13.24,11.42c4.23,3.21,13.69,22.43,14.98,8.06c-5.8-11.22,18.08-12.06,11.91-0.3
		c-4.72,8.1-0.11,15.63-2.6,23.05C504.93,603.56,507.76,597.56,511.02,601.75z"/>
	<path class="st3" d="M279.47,618.73c-19.9-4.69-67.85,11.99-71.94-12.13c2.37-8.4-10.28-6.29-11.82-13.39
		c-3.07,29.09-29.71,29.9-52.33,22.83c-9.29,1.3-6.56-17.38-16.12-13.2c3.83,11.64,13.32,17.81-7.48,15.89
		c-1.49-14.46-13.3-18.32-24.23-25.43c-10.84-7.35-19.48-13.96-18.89,4.74c-2.91,54.64-30.72-13.72,3.52-22.23
		c6.52-5.71,5.12-14.19,16.63-10.13c14.82,1.62-1.52,25.45,15.73,27.84c3.26-1.12-1.8-9.13-2.06-12.5
		c1.01-6.82-6.75-12.61-4.88-18.24c5.67-0.23,18.34-3.48,18.49,5.19c0.06,4.48,2.19,15.14,8.29,10.17
		c28.52-12.65,9.38,33.18,27.69,32.12c30.12,5.62-17.91-13.54,21.37-33.69c6.1-0.87,10.38,9.77,15.14,1.3
		c2.2-5.92,6.45-2.08,10.26-3.87c4.39-4.81,12.76-4.88,18.55-5.92c7.71,5.63,2.81-19.62,19.32-6.93
		c4.47,5.54,13.81,13.84,0.56,12.41c7,10.42-15.58,6.96-6.75,9.52c3.05,3.37,4.68,15.85,0.31,18.56c7.74,1.32,21.07-2.72,26.03,4.66
		c10.07,12.43,17.34-16.04,26.14-19.91c14.6-10.36-4.32-27.11,10.4-35.19c2.42-11.78,7.69-10.57,18.61-7.01
		c2.13,1.11,4.33,0.54,4.28-2.76c4.5-6.94,13.12-9,10.48-20.7c-5.71-20.55-24.67,26.9-33.48,4.66
		c0.18-18.49-11.87-13.51-23.01-10.89c-7.25-3.35-13.25,4.15-16.66-5.08c-4.91,4.44-4.08,20.08-14.58,6.33
		c-0.59-5.24-10-3.75-6.67-10.55c-1.56-18.84,3.6-0.12-2.51,6.94c-20.7,6.76-14.69-22.51-23.61-2.48
		c-17.15,17.8-26.71,13.54-28.21-10.65c-5.8-7.02-7.59-25.58,5.56-19.08c2.58,3.28,1.6,10.87,4.41,15.41
		c3.54-2.05,3.83,3.66,6.83,4.04c10.33-7.95,15.09-22.64,24.13-32.15c4.08-4.89,9.02-11.45,15.45-11.4
		c-4.2-1.72-3.72-6.97-0.15-11.06c-0.79-6.89,2.58-20.96,11.06-19.6c8.37,0.43-4.7,47.61,12.01,27.87
		c-2.94-10.33,10.7-7.72,8.58,0.81c1.02,43-1.69,13.52-24.08,33.67c32.35-7.88,6.37-1.28,34.02,6.1c8.5,5.61,19.91-2.53,26.27,4.71
		c4.04,5.64,11.73-0.15,16.66,3.99c5.4,1.07,9.18-7.05,15.83-2.46c12.07,7.83,28.11-6.4,38.62,2.63c7.59,4.43,16.06,8.51,4.05,15.42
		c-9.91,15.37-28.08,10.71-42.53,9.42c-5.79,20.95-8.07,33.97-33.15,33.08c-9.95,3.28-3.31,18-6.13,26
		C296.6,597.52,286.89,607.75,279.47,618.73z"/>
	<path class="st4" d="M511.02,601.75c-4.46,1.05-6.8,9.74-11,4.26c-0.58-0.74-1.7-1.8-2.32-1.66c-8.12,0.89-1.84-8.16,2.54-7.33
		c-2.09-5.96-10.81-5.07-1.96-10.18c1.68-4.66,7.06-15.59-2.34-12.39c-2.68,8.04-1.52,17.14-12.6,9.01
		c-8.3,0.31-1.81-5.45-6.89-7.33c-11.7,3.04,3.6-10.58-7.21-13.06c-3.78-4.54-5.54,1.95-9.84,1.2c-5.62-2.15,11.16-8.97,1.74-14.79
		c-4.9-6.63-35.54-8.99-16.01-16.87c-18.09-9.27,1.37-8.94,2.42-21.4c4.05-4.41-1.74-6.95-0.74-11.22c1.31-1.79,1.02-1.78-1.01-3.44
		c-8.36-8.31,1.16-12.97,10.2-14.27c-5.93-10.11,3.91-30.19,12.44-34.5c3.72,4.33-4.18,12.46,4.55,14.13
		c3.1,2.29,5.24,7.98,10.51,2.48c14.34,25.51,13.82,1.08,27.51,15.52C511.06,520.49,510.96,561.81,511.02,601.75z"/>
	<path class="st5" d="M289.45,618.73c-22.44,3.04,22.28-34.72,19.54-49.18c26.68-24.96,15.74,3.75,37.03-39.39
		c1.28-3.64,2.72-4.03,6.19-2.07c5.27,5.18,12.34-4.14,15.98,2.54c5.85,3.36,32.11-22.52,22.53-3.51c-4.93,1.14-4.66,4.81-7.34,8.16
		c-6.39,4.75-15.82,7.15-20.74,13.07c-9.45,19.85-28.7,26.79-46.66,33.52c-2.78,6.67,14.06,10.32,4.58,15.48
		C306.15,597.86,302.22,613.8,289.45,618.73z"/>
	<path class="st6" d="M289.45,618.73c8.82-10.37,16.81-22.67,30.51-24.88c-3.54-3.8-12.04-13.8-4.02-16.73
		c6.9,1.53,10.67-3.34,16.16-5.57c3.63,0.61,6.3,0.58,5.4-4.48c-0.08-0.44,3.17-2.1,4.89-2.12c15.95-9.76,27.25-30.3,46.85-38.16
		c-0.01,20.58-36.36,38.24-49.14,56.43C325.02,604.36,320.13,626.15,289.45,618.73z"/>
	<path class="st7" d="M73.87,618.73c2.19-6.82-4.07-11-3.17-16.57c5.54-6.13-0.32-25.93,17.84-17.48
		C140.19,613.44,123.63,622.88,73.87,618.73z"/>
	<path class="st8" d="M106.82,563.79c8.37,10.06,5.77,24.01,13.71,34.52c-7.45-1.14-28.12-8.64-18.76-18.55
		c2.86-10.43-9.49-17.64-15.02-8c0.45,5.44-1.96,6.81-6.85,7.25c-11.29,1.93-18.62,20.04-14.5,30.36c7.77,1.36,2.93,5.93,2.47,9.37
		c-27.51,3.37-0.39-40.09,8.94-50.55c7.9-1.39,11.32-19.32,17.1-11.17c-1.08-12.84-11.45-30.94,2.58-40.37
		c16.17-3.86-2.01,15.21,4.33,22.36C95.91,548.62,112.56,556.58,106.82,563.79z"/>
	<path class="st9" d="M290.45-118.32c1.1,11.8-2.49,21.76-3.32,32.93c-8.03,4.57-11.91,39.53-17.07,20.44
		C278.15-95.78,223.65-123.86,290.45-118.32z"/>
	<path class="st10" d="M457.09,457.94c-28.6,57.24-104.82,121.25-133.3,156.71c7.23-24.51,26.7-42.69,45.9-60.25
		C405.32,529.99,424.76,479.95,457.09,457.94z"/>
	<path class="st11" d="M50.91,618.73c-17.29-3.84,8.87-36.66,10.56-49.8c-0.29-8.73-2.79-20.82,2.54-28.11
		c3.78-21.78,10.12-5.17,12.49-17.03c-6.69-11.47,19.19-14.74,14.51-3.32c-4.05,8.83,5.11,30.44-11.36,17.14
		c-1.88,0.54-2.17,2.37-2.47,4c-1.27,16.14,9.7,22.06-7.82,35.55C57.09,588.48,62.81,609.14,50.91,618.73z"/>
	<path class="st12" d="M259.51-118.32c-0.13,15.15,5.48,27.7,14.02,39.96c3.71,7.35-5.24,15.76-5.79,5.12
		c1.99-13.07-12.09-17.44-22.54-16.59c-4.89-1.41-4.46,14.01-7.68,6.4C240.59-105.62,229.78-124.24,259.51-118.32z"/>
	<path class="st13" d="M183.66,618.73c-0.84-10.53,11.38-21.75,3.91-25.74c2.03-4.6,12.22-7.19,12.36,1.17
		c5.37,4.65,14.83,5.08,9.98,14.99C231.99,625.22,196.21,616.66,183.66,618.73z"/>
	<path class="st14" d="M50.91,618.73c8.15-21.24,11.43-44.57,27.01-57.61c-5.53-33.21,4.82-14.05,12.3-21.02
		c3.23-7.69,6.22,16.22,8.29,20.91c1.8,4.88-3.01,1.03-4.53-1.03c-5.2-5.86-11.07,10.47-17.2,12.68
		C58.95,582.31,65.17,614.68,50.91,618.73z"/>
	<path class="st15" d="M358.37,564.83c-14.15,17.21-27.21,33.58-35.99,53.9C308.63,607.76,344.63,572.7,358.37,564.83z"/>
	<path class="st8" d="M132.75,618.73c-6.13-4-15.2-26.31-1.57-19.28c7.15,1.39,5.72,10.81,11.15,13.21
		C158.04,616.88,140.21,620.48,132.75,618.73z"/>
	<path class="st16" d="M51.9,557.81c-7.19-14.91,25.09-40.37,8.26-9.95c0.52,8.99-7.63,9.63,0.71,17.54
		c-1.69,17.07-13.57,29.65-15.49,47.04c-7.52,7.73-3.49-22.72,1.37-26.1C57.62,577.72,48.71,566.25,51.9,557.81z"/>
	<path class="st17" d="M511.02,282.16c-4.61,7.35-9.86,14.33-13.98,21.97c-5.14-13.69,14.55-26.56,10.99-41.68
		C488.53,201.11,518.4,252.68,511.02,282.16z"/>
	<path class="st18" d="M51.9,557.81c7.2,19.79-8.56,34.21-10.96,53.93c-2.19-17.46,5.18-28.55,10.6-42.73
		C50.39,564.82,45.85,560.82,51.9,557.81z"/>
	<path class="st19" d="M40.93,613.74c3.45-8.65,19.51-53.27,16.96-28.97C49.25,589.13,48.75,632.34,40.93,613.74z"/>
	<path class="st20" d="M466.11-118.32c-2.64,6.02-0.36,13.85-2.66,19.06c-2.74-2.07-11.8-3.13-8.68-7.56
		C467.75-106.74,453.88-120.81,466.11-118.32z"/>
	<path class="st21" d="M295.44,597.76c-5.59,6.16-8.84,17.89-15.97,20.97C281.76,612.95,292.36,593.39,295.44,597.76z"/>
	<path class="st10" d="M322.39,618.73c2.7-11.13,10.64-20,15.96-29.97C335.41,599.22,328.98,611.03,322.39,618.73z"/>
	<path class="st22" d="M40.93,92.41c2.01,0.28,5.78,0.6,5.77,0.85C46.45,103.43,38.66,102.69,40.93,92.41z"/>
	<path class="st23" d="M511.02,443.95c-7.07-1.51-3.24-3.95,0-7.99C511.02,438.63,511.02,441.29,511.02,443.95z"/>
	<path class="st24" d="M511.02,58.45c-2.7,4.74-6.91,2.65-6.72-2.97C506.35,58.55,511.72,54.51,511.02,58.45z"/>
	<path class="st20" d="M40.93,428.97c3.96,4.2,8.65,7.18,0,8.99C40.93,434.97,40.93,431.97,40.93,428.97z"/>
	<path class="st2" d="M511.02,592.76c-2.32-0.45-8.29-2.65-5.48-5.24C507.46,589.29,511.63,589.72,511.02,592.76z"/>
	<path class="st25" d="M383.27,275.17c-5.54,12.86-6.37-1.24-2.74-7.25c0.27-16.05-10.72-29.37-16.94-43.42
		c-4.68-8.62,9.12-9.2,13.02-14.83c12.39-18.38-17.01-54.74-4.71-81.7c8.63,13.26-2.11,42.77,11.98,58.77
		c8.37,17.11,1.51,29.44-13.94,36.52C377.33,238.83,392.98,256.27,383.27,275.17z"/>
	<path class="st26" d="M361.3-2.47c-3.89,19.71,16.64,31.41,15,49.1c-3.07,13.64,2.98,35.42-3.62,45.15
		c-4.23-17.99-2.23-36.37-4.11-53.91C358.36,28.39,350.93-35.47,361.3-2.47z"/>
	<path class="st27" d="M361.3-2.47c-7.37-15.28-9.47-31.73-16.82-47.55C351.97-67.56,360.98-14.19,361.3-2.47z"/>
	<path class="st25" d="M373.31,91.42c3.33,0.52,4.43,35.74-2.2,35.24C372.32,115.21,368.79,101.92,373.31,91.42z"/>
	<path class="st28" d="M481.15,173.34c8.69-9.43,9.75-0.66,17.77-2.15c10.72-3.41,6.72,16.11,2.58,20.18
		c-5.13-1.06-1.01-14.05-8.89-7.28c-9.28,6.33-4.36,16.93-12.67,21.87C461.32,230.26,486.34,183.38,481.15,173.34z"/>
	<path class="st29" d="M505.09,177.35c-1.1-4.23-3.08-5.37-7.2-2.86c-3.58,2.18-7.71,3.85-8.44-3.1
		C481.66,159.63,516.56,165.15,505.09,177.35z"/>
	<path class="st30" d="M507.03,173.3c-3.8-5.33-10.22-5.98-15.97-8.01C500.2,158.33,505.97,163.35,507.03,173.3z"/>
	<path class="st20" d="M486,10.73c-5.25-3.86-1.08-11.98,4.78-11.09C491.49,3.13,489.3,8.64,486,10.73z"/>
	<path class="st20" d="M503.2-6.16c-8.45,0.72-9.41-8-2.91-7.04C501.52-11.33,505.84-8.09,503.2-6.16z"/>
	<path class="st20" d="M473.71-19.51c3.99,2.99,4.85,4.21,0.05,5.67C470.28-14.75,471.76-17.11,473.71-19.51z"/>
	<path class="st20" d="M474.17-4.1c-1.92-2.58-3.55-4.56-0.13-5.51C476.88-8.32,476.36-6.81,474.17-4.1z"/>
	<path class="st20" d="M469.23,0.11c2.48,2.69-1.3,4.47-2.3,6.95C463.96,5.53,468.25,2.83,469.23,0.11z"/>
	<path class="st20" d="M449.4,49.66c-2.63-3.5-0.54-4.2,1.05-6.96C451.92,45.02,450.09,46.46,449.4,49.66z"/>
	<path class="st20" d="M506.03-22.45c-1.42,0.9-2.65,2.92-3.42,0.45C503.74-22.15,504.94-22.28,506.03-22.45z"/>
	<path class="st20" d="M451.22,97.54c-1.07,0.58-2.06,1.24-2.29-0.21C449.88,96.4,450.28,95.93,451.22,97.54z"/>
	<path class="st20" d="M506.04-22.44c0.72-1.12,0.62-4.32,2.28-2.87C507.57-24.35,506.75-23.4,506.04-22.44z"/>
	<path class="st28" d="M457.09,457.94c-9.64,1.39,1.94-8.65,3.03-12.22C469.55,440.56,462,456.14,457.09,457.94z"/>
	<path class="st4" d="M460.88,554.59c-2.78,3.13-3.84-1.8-5.9-3.35C456.38,548.56,458.78,553.34,460.88,554.59z"/>
	<path class="st31" d="M84.84,92.42C75.81,76.68,88.19-47.95,111.9,10.6c-10.46,27.73,6.71,26.55,0.81,46.78
		c-12.72-12-3.63-35.94-13.99-46.55c-11.41-1.27-4.38,19.6-5.05,26.88C77.97,52.79,93.87,74.89,84.84,92.42z"/>
	<path class="st32" d="M89.73,41.43C90.67,31,88.59-7.1,104.97,10.44C103.07,38.71,129.74,78.19,89.73,41.43z"/>
	<path class="st33" d="M111.86,60.37c6.8,11.69-6.76,15.81-2.53,27.38c-3.68,22.99,11.76,24.56,8.57,40.68
		c-3.73,6.76-8.62-13.83-15.83-15.25C92.36,99.06,93.36,66.6,111.86,60.37z"/>
	<path class="st12" d="M85.86,227.24c3-34.31-14.37-81.57-2.91-109.22c1.73,25.22,3.34,53.48,7.98,80.13
		c-4.15,10.88,3.56,23.63-3.43,34.11C84.27,234.79,82.62,228.68,85.86,227.24z"/>
	<path class="st34" d="M141.68,111.32c30.09-17.16-3.89-55.9,15.06-80.81c5.73,10.58-6.35,26.76,4.4,36.1
		C159.78,78.25,162.6,118.36,141.68,111.32z"/>
	<path class="st35" d="M111.86,60.37c-16.66,17.45-13.41,15.3-10.09-4.15C96.73,43.23,113.42,51.82,111.86,60.37z"/>
	<path class="st27" d="M127.23-33.35c-3.32-6.29-7.59-11.53-7.64-18.6C127.95-49.25,137.51-40.38,127.23-33.35z"/>
	<path class="st31" d="M112.78,72.41c3.84-11.66-0.8,18.85-4.01,14.03C105.48,79.98,103.89,75.04,112.78,72.41z"/>
	<path class="st36" d="M84.84,92.42c3.77-8.55,3.68,8.52,1.8,11.64C82.59,106.51,85.7,95.21,84.84,92.42z"/>
	<path class="st12" d="M84.77,103.2c2.35,4.83,3.45,10.54-2.71,14.29C81.56,113.34,84.2,107.81,84.77,103.2z"/>
	<path class="st27" d="M96.76-70.14c-2,1.27-2.37,0.54-2.8-1.15C95.15-73,95.83-71.59,96.76-70.14z"/>
	<path class="st37" d="M147.72,69.44c0.82,1.15,3.66,2.22,1.65,3.32C148.82,71.65,148.28,70.52,147.72,69.44z"/>
	<path class="st27" d="M114.75-39.8c1.52,1.18,0.9,1.54-0.13,2.44C113.16-37.84,114.02-38.74,114.75-39.8z"/>
	<path class="st38" d="M238.48-0.46c5.97-9.51-9.62-48.28,1.46-42.93c6.57,6.8,1.62,50.08,13.92,32.89
		c9.42-17.65,14.46,1.32,15.75-27.12c15.91,14.37-4.43,49.46,12.6,63.66c-3.31,10.76,6.97,24.47,0.6,33.23
		c-4.45-2.98-5.19-10.28-12.74-6.82c-39.8-29.06-11.72,26.1-27.22,38.26C234.79,62.6,239.72,28.94,238.48-0.46z"/>
	<path class="st39" d="M151.71,107.38c9.08-10.48,3.46-26.11,6.87-38.59c-10.43-10.1-2.08-43.42,0.96-56
		c4.15,6.16,1.49,14.21,2.71,21.43c9.72-14.49,16.76,11.23,25.49,16.72c10.15,14.69,5.12,33.81,9.67,51.19
		c-18.04-0.86-27.09,6.79-34.32-12.9C157.26,92.81,164.04,115.59,151.71,107.38z"/>
	<path class="st40" d="M167.71,30.47C152.13,67,159.92-25.1,156.59-36.95c17.23-26.44,3.66-40.23,15.6-46.37
		c9.47,3.87,0.85,20.6,9.15,25.55c7,2.35,9.98,10.04,12.38,16c5.08,20.57-6.12,41.75-6.07,63.32
		C185.1,29.93,172.5,20.35,167.71,30.47z"/>
	<path class="st41" d="M194.6-16.51c-3.3-10.84,1.43-19.79-2.97-29.89c-13.54-9.47-0.3-29.62-9.6-36.88
		c-24.65-8.68-10.9,46.64-17.93-1.45c2.23-26.45,40.37-4.23,26.01,13.01C186.41-53.7,203.66-30.33,194.6-16.51z"/>
	<path class="st42" d="M80.3-99.8c-8.06,13.45-5.64,5.88-12.21-2.47c-3.15,9.12-6.61,6.5-11.35-0.04
		C65.64-113.07,73.1-111.02,80.3-99.8z"/>
	<path class="st41" d="M166.69-61.4c-3.8,20.88-12.48,37.81-8.98,59.93C155.61-24.17,151.35-42.8,166.69-61.4z"/>
	<path class="st43" d="M236.54-41.41c12.81,53.58-18.04-32.26,1.02-40.93c3.56,2.68,0.78,5.95-0.18,8.01
		C235.91-62.56,241.28-52.49,236.54-41.41z"/>
	<path class="st42" d="M57.6-109.26c-2.01,2.51-3.85,4.8-5.68,7.08C50.05-105.2,54.7-117.08,57.6-109.26z"/>
	<path class="st44" d="M187.72,6.57c3.81-12.08,4.19-13.3,1.93-0.05C189.02,7.08,188.4,7.21,187.72,6.57z"/>
	<path class="st34" d="M156.75,19.45c-0.01,3.68-0.01,7.37-0.02,11.05C156.73,26.82,156.74,23.14,156.75,19.45z"/>
	<path class="st45" d="M194.6-16.51c-0.08,3.46-2.03,6.75-2.86,10.13C192.69-9.76,193.64-13.14,194.6-16.51z"/>
	<path class="st34" d="M157.77,10.4c2.68,2.74,1,4.58-1.04,7.11C157.08,15.14,157.43,12.77,157.77,10.4z"/>
	<path class="st46" d="M345.27-56.35c3.63,10.79,15.69,35.65,9.82,41.42c-1.2-15.05-18.1-20.21-30.1-11.73
		c-16.26-1.91-5.5-28.89,7.71-31.19C337.93-64.14,341.48-62.67,345.27-56.35z"/>
	<path class="st47" d="M343.39-58.44c-5.38-0.04-9.67-8.08-13.84-6.49c-0.37,4.27,6.44,2.52,8.81,4.53
		c0.7,9.24-15.76,2.47-15.49,14.24c-11.76,13.36,8.33,23.24,2.34,39.15c-5.61,1.99-3.57-19.93-9.21-24.94
		c-6.19-10.94,9.64-21.65,5.34-33.32c-7.12-3.29,2.33-9.81-1.7-14.94c-0.63-5.32,8.17-9.96,12.66-8.61
		C339.76-82.85,339.52-67.97,343.39-58.44z"/>
	<path class="st48" d="M339.34-74.38c-9.46-3.47-5.17-6.06-8.57-12.36c-9.14-0.46-10.93,15.54-9.42,21.47
		c-9.65-0.8,1.91-10.49-4.7-14.69c-0.59-0.43,0.25-3.41,1-4.92C323.56-100.79,343.87-88.7,339.34-74.38z"/>
	<path class="st34" d="M277.48-39.42c-9.01,24.42,14.62,49.59,8.97,72.05C282.8,70.97,265.29-74.3,277.48-39.42z"/>
	<path class="st34" d="M286.39,44.45c-4.28,38.16,2.13,79.77-4.91,115.73c-10.82-13.4,0.35-41.05-0.78-59.36
		C280.65,93.97,281.48,34.13,286.39,44.45z"/>
	<path class="st20" d="M349.95-108.53c0.91-3.01,12.56-6.23,11.08-1.96c-5.7,5.63,12.43,7.28,11.74,15.08
		c-1.13,2.29-5.44-0.53-6.07-1.65C362.67-105.41,349.82-93.2,349.95-108.53z"/>
	<path class="st49" d="M291.26-63.78c-6.83-4.67,5.16-9.32,9.17-9.98C301.53-68.42,294.52-67.18,291.26-63.78z"/>
	<path class="st9" d="M277.48-39.42c-2.56-5.88-8.18-12.89-2.01-18.97C276.02-53.23,286.44-40.39,277.48-39.42z"/>
	<path class="st49" d="M285.35-27.72c-3.97-3.02-1.14-4.01,1.7-6.05C290.45-31.9,288.16-29.98,285.35-27.72z"/>
	<path class="st20" d="M439.03-55.86c-1.83-2.26,0.26-5.17,1.93-2.9C440.78-58.13,440.24-57.59,439.03-55.86z"/>
	<path class="st49" d="M278.46-39.43c1-1,2-2,3-3C282.06-39.83,281.49-38.39,278.46-39.43z"/>
	<path class="st7" d="M106.82,563.79C88.9,543.54,95,507.12,124.06,502.33c13.87-11.93-9.1-32.04,12.19-39.63
		c-15.57-17.63-12.7-28.1,11.4-38.28c3.67-12.55,22.36-5.5,18.82-13.57c8.21-21.79-8.95-49.79,3.18-68.56
		c5.7,0.55,11.6,11.07,10.3,16.94c-0.94,7.18,11.93-0.37,12.23,8.07c2.67,9.15-8.73,1.95-10.08,8.81
		c-5.76,24.89,30.01,36,35.9,57.21c1.73,7.21-8.8,2.87-8.64,8.77c-4.32,9.94-18.59,12.97-17.46,26.86
		c1.85,10.17-15.23,13.93-3.81,27.17c5.09,18.1,4.71,31.22,23.64,11.34c4.14-3.3,0.25-14.51,8.04-10.45
		c11.29,2.71-3.52,10.02,13.51,13.21c12.29,0.1-4.69-26.95,7.08-20.23c3.78,7.24-1.82,25.57,10.74,15.77
		c1.41,4.9-2.89,8.55,1.93,11.89c4.67-3.43,1.43-9.54,7.39-12.13c8.41-7.04,2.56,8.3,9.52,5.01c2.2-0.74,5.2,0.26,7.66,1.05
		c7.15,3.86,4.67-9.19,11.48-4.77c2.5,1.64,5.22,3.59,8.06-0.11c1.17,6.13,8.21,4.21,7.13,9.04c-0.71,4.43-1.17,11.51,4.54,13.13
		c3.5-3.55,0.25-10.04,7.05-7.76c3.57,0.71,6.99-0.49,7.13-4.85c0.28-7.06,13.72-5.81,14.14,0.49c3.95,14.86-2.89,19.71-9.16,28.22
		c3.38,13.65-24.8-9.02-21.16,4.24c6.35,8.7-11.76,1.51-8.76,12.51c11.36,13.77-25.57,63.5-36.83,47.87
		c0.08-8.55-21.52-7.51-26-1.42c0.68-6.98,10.35-28.07-6.44-22.52c-2.63-11.06,11.01-2.32,14.96-9.14
		c-9.31-6.81-1.83-4.01,5.17-6.03c-9-9.29-13.16-11.83-17.79,1.67c-6.91,1.8-19.41-3.18-22.28,6.13c-0.79,2.8-3.51,2.68-5.46,0.28
		c-6.19-3-10.01,14.14-18.3,2.32c-9.96-6.17-20.55,14.33-15.71,22.38c10.57,1.76,8.18,11.21-0.87,12.28
		c-3.14-2.37-4.67-3.3-8.55-0.5c-19.16,1.01-5.21-26.63-16.24-34.41C106.34,588.72,137.67,563.93,106.82,563.79z"/>
	<path class="st50" d="M184.67,479.9c-2.18-8.85,7.47-3.96,5.19-15.96c1.06-13.12,12.89-14.54,18.39-23.74
		c7.84-5.9,9.26-10.1-0.65-14.71c-2.95-11.31-12.18-12.83-17.69-21.36c-34.09-36.33,13.24-36.5-5.58-38.15
		c-12.83,2.47-5.49-13.85-12.3-19.52c-9.02-4.61,0.34,35.28-9.18,20.3c-0.75-17.34-3.6-32.34-4.93-49.09
		c-3.85-38.42,12.62-26.05,15.05,2.47c0.95,6.91,2.2,7.63,7.91,3.68c13.44-7.6,15.69,51.77,18.94,62.37
		c25.13,64.59,26.77-74.38,33.66-90.25c1.97-3.67,8.42-1.79,6.77,2.49c1.87,21.69,13.02-11.18,21.65-11.09
		c13.21,7.11-3.51,38.48,0.89,52.87c2.07,4.65-4.48,6.56-2.17,10.98c3.1,10.78,0.29,25.23-1.65,36.51
		c13.55,110.95,49.65-38.68,59.98-68.41c-0.92-15.25,13.23-5.58,9.88,4.36c0.01,17.72-7.12,36.97-9.55,55.74
		c-1.81,3.25-4.31,6.71,2.74,5.69c4.01,3.52,6.36,10.9,10.29,15.45c-3.81,6.37-3.96,53.64-16.99,37.03
		c-6.56-8.35,4.08-18.83-3.06-24.66c-2.96-2.96-6.79,3.28-2.36,4.07c22.95,36.49-36.18,28.88-29.29,48.81
		c5.7,9.24,6.9,22.44,20.94,14.81c7.86,4.18,11.6-14.98,19.68-5.53c0.64,13.73-13.37,19.6,14.1,18.36c12.85,6.96,9.94-0.35,22,1.69
		c23.89-0.32,34.83-5.54,37.13-30.01c-12.38-15.69,25.31-56.52,23.37-24.51c-2.3,4.87-7.47,0.15-10.39,3.04
		c-3.25,3.3-3.67,4.48-0.34,0.43c3.2-4.21,6.91,2.79,10.96,2.58c12.61,5.54,1.03,10.61-3.92,16.88c-1.82,4.85-10.77-0.48-11.1,0.78
		c8.32,0.26,3.25,6.32,3.28,10.16c-3.42,8.47,3.34,8.28,5.43,14.54c-6.96,9.16-12.8,18.21-21.24,26.97
		c-10.1,9.57,4.08-23.64-33.19-11.03c-11.1,6.91-18.63-14.58-28.26,3.03c-5.16,2.93-4.96-6.98-16.06-4.16
		c-5.41-0.58-5.74-7.69-11.22-5.72c-7.08,1.17-37.7-1.79-34.76-10.56c0.01-0.07-1.86-0.81-2.69-0.61
		c-34.7,15.62-18.27-13.03,4.09-10.75c7.65,0.98-3.65-7.24,2.6-11.38c2.13-2.1,0.89-7.88,0.67-11.97c-5.52-9.7-2.17,9.57-7.3,10.74
		c-21.49,0.62-1.88-40.78-16.35-32.14c-6.44,8.41,3.21,12.81-4.05,17.87c-3.06,3.64-1.39,15.81-7.14,12.16
		c-2.75-0.19-4.94,8.37-7.02,3.84c-0.76-4.52-7.65-16.62-12.18-12.02c-7.5,6.51-17.26,8.81-17.68,20.17
		c1.03,6.36-0.3,16.33,9.6,10.07c3.97-5.14-8.39-7.53-2.92-13.09c3.1-3.52,5.95-0.7,8.64,1.2c8.57,2.22,12.64-0.89,5.28,8.92
		c-2.11,7.05-6.48,11.26-11.76,16c-3.23,12.56-11.52-4.94-15.91,6.58C191.68,494.72,194.56,484.63,184.67,479.9z"/>
	<path class="st51" d="M225.57,472.92c-4.66,8.96-17.38-5.11-15.77,2.05c9.97,7.99,2.44,13.55-7.95,12.65
		c-11.68,0.37-1.84-4.96-5.96-11.38c-6.83-8,9.49-11.55,6.27-20.25c-0.28-7.84,5.92,5.87,17.16-7.73c6.52-4.97,5.31,5.34,8.94,7.76
		C236.79,462.16,230.3,469.72,225.57,472.92z"/>
	<path class="st52" d="M362.38,528.9c-1.58,3.39-7.81,4.48-10.89,2.07c-13.06-0.38-11.24,32.82-24.77,29.64
		c-13.72-6.74-23.21,36.37-24.06,22.85c-1.56-32.19,19.46-17.64,30.72-34.64C346.14,530.02,335.6,520.79,362.38,528.9z"/>
	<path class="st53" d="M362.38,528.9c-12.31,2.63,18.36-3.94,20.88-12.04c8.47,0.04,25.1-31.85,23.49-18.6
		C395.74,513.46,382.05,537.74,362.38,528.9z"/>
	<path class="st21" d="M303.44,582.79c0.58,5.24-1.68,12.27-8.02,12.94c13.76-9.87-1.83-33.49,15.69-37.32
		c9.04-2.58,8.73,0.34,0.32,2.4C304.32,565,307.38,576.13,303.44,582.79z"/>
	<path class="st54" d="M354.37,526.79c-15.15-3.32-11.66,15.66-21,22.04C337.76,537.53,337.81,518.93,354.37,526.79z"/>
	<path class="st7" d="M257.86,472.85c-3.9,2.3-8.68,5.95-11.27,1.13C248.26,469.08,256.03,467.06,257.86,472.85z"/>
	<path class="st50" d="M241.82,470.45c-4.45,3.27-6.01,4.42-10.2,6.92C233.02,472.4,235.5,467.92,241.82,470.45z"/>
	<path class="st13" d="M217.75,588.6c-3.32,7.17-3.64,1.9-5.54-2.59C214.19,582.74,215.78,586.91,217.75,588.6z"/>
	<path class="st54" d="M313.4,559.81c5.22-3.96,11.78-4.42,17.94-6.04C325.36,555.78,319.38,557.79,313.4,559.81z"/>
	<path class="st50" d="M317.39,511.86c-1.09,2.69-2.06,5.39-4.19,1.85C312.03,509.67,314.69,510.84,317.39,511.86z"/>
	<path class="st7" d="M135.03,590.55c-1.69,1.5-3.5,6.05-5.08,2.81C131.75,591.36,133,585.92,135.03,590.55z"/>
	<path class="st7" d="M243.58,455.96c2.11-3.1,5.92-5.45,3.75-0.25C246.57,456.69,240.38,457.4,243.58,455.96z"/>
	<path class="st8" d="M98.77,574.2c-3.75,2.72-4.03,0.44-6.32-1.83C94.73,569.86,95.99,572.83,98.77,574.2z"/>
	<path class="st7" d="M230.67,484.51c-1.34,1.87-1.98,2.76-2.62,3.64C225.78,486.5,228.26,482.8,230.67,484.51z"/>
	<path class="st7" d="M256.33,500.92c-2.14,1.45-2.41,1-3.63-0.62C254.22,498.7,254.66,499.55,256.33,500.92z"/>
	<path class="st55" d="M176.05,585.52c0.85,2.79,1.5,2.89,0,4.61C173.73,588.79,174.63,589.15,176.05,585.52z"/>
	<path class="st14" d="M101.82,578.79c1.65-0.21,3.69-0.9,2.69,1.27C103.47,579.88,101.36,580.34,101.82,578.79z"/>
	<path class="st51" d="M243.58,455.96c-0.73,1.14-1.81,1.09-3.04,0.98C241.84,455.17,242.52,452.71,243.58,455.96z"/>
	<path class="st50" d="M225.58,471.93c1.66-0.67,3.32-1.34,4.98-2.01C228.9,470.59,227.24,471.26,225.58,471.93z"/>
	<path class="st50" d="M317.4,511.87c0.87-0.79,1.52-3.88,2.67-2.45C319.19,510.24,318.25,511.05,317.4,511.87z"/>
	<path class="st50" d="M303.76,507.02c-1.11,1.22-1.42,0.79-2.16-0.38C302.58,505.71,302.97,505.83,303.76,507.02z"/>
	<path class="st2" d="M463.17,451.98c0.51-4.9,0.33-12.82,7.84-11.08C469.51,445.68,468.25,450.08,463.17,451.98z"/>
	<path class="st2" d="M489.6,579.24c1.16,2.13,0.61,2.39-0.84,3.59C487.18,581.28,488.28,580.92,489.6,579.24z"/>
	<path class="st2" d="M509.02,597.52c-1.49,1.45-2.05,1.86-2.91,0.13C506.54,596.11,507.54,596.81,509.02,597.52z"/>
	<path class="st2" d="M487.45,569.69c0.7,1.07,3.3,2.64,1.19,2.96C487.56,571.58,485.07,570.8,487.45,569.69z"/>
	<path class="st2" d="M449.04,537.01c-0.68-0.72-1.35-1.24-0.6-1.88C449.81,535.3,449.61,535.78,449.04,537.01z"/>
	<path class="st42" d="M78.05-6.2c0.37,14.01-8.32-3.83-3.53-3.68C76-8.59,77.26-7.05,78.05-6.2z"/>
	<path class="st42" d="M61.3-2.45c-4,4.15-4.88-0.18-8.07-2.16C55.87-7.77,57.89-3.86,61.3-2.45z"/>
	<path class="st24" d="M492.73,60.26c2.94,5.13-0.09,5.94-2.86,9.27C485.69,65.41,488.82,65.3,492.73,60.26z"/>
	<path class="st20" d="M61.73,246.29c-1.57,1.6-2.38,2.12-3.17,0.02C59.07,244.35,60.31,245.17,61.73,246.29z"/>
	<path class="st2" d="M498.02,297.11c-8.08,37.68-5.45,75.37-14.57,114.56c-2.16,10.25-5.2,20.2-12.32,28.33
		c2.13-16.6,6.01-34.43,11.48-50.83C490.76,360.43,478.2,318.94,498.02,297.11z"/>
	<path class="st34" d="M486.22,328.19c8.88,20.66-10.48,132.45-23.61,113.46C484.8,411.33,477.63,360.41,486.22,328.19z"/>
	<path class="st4" d="M486.55,460.58c-0.43,1.27-1.35,1.27-1.84,0.38C485,459.54,485.53,459.36,486.55,460.58z"/>
	<path class="st56" d="M489.08,385.04c1.65-8,3.3-15.99,4.94-23.99C492.38,369.04,490.73,377.04,489.08,385.04z"/>
	<path class="st57" d="M389.29,527.92c18.73-43.7,57.19-76.45,83.15-114.02C477.43,430.87,405.93,526.77,389.29,527.92z"/>
	<path class="st52" d="M439.21,456.96c-18.61,17.36-50.07,87.16-73.85,72.81C402.76,528.9,408.87,469.16,439.21,456.96z"/>
	<path class="st6" d="M367.28,531.91c1.04,1.4,1.4,6.6-0.97,6.26C366.59,536.08,365.69,533.56,367.28,531.91z"/>
	<path class="st54" d="M295.45,595.76c2.65-2.33,5.31-4.66,7.96-7C301.31,590.3,295.07,600.31,295.45,595.76z"/>
	<path class="st32" d="M389.29,527.92c34.73-29.64,58.1-69.9,81.88-102.9C468.58,463.67,299.18,633.02,389.29,527.92z"/>
	<path class="st16" d="M69.88,466.92c12.01,8.61-0.4,84.78-6.37,58.11C66.43,505.38,71.56,487.07,69.88,466.92z"/>
	<path class="st18" d="M66.88,513.86c-0.73,14.64-1.91,22.42-14.97,30.96C63.76,536.18,57.87,523.23,66.88,513.86z"/>
	<path class="st18" d="M51.91,544.82c3.14,3.38,3.67,6.48-1,8.99C48.5,550.51,48.94,547.53,51.91,544.82z"/>
	<path class="st14" d="M91.8,522.83c-1.28-19.18,28.96-28.62,19.01-46.93c10.33-7.04,22.33,11.7,15.81,22.07
		C115.06,506.97,103.48,514.57,91.8,522.83z"/>
	<path class="st58" d="M275.49-48.42c-5.43,24.05,5.96,51.54,3.95,72.94c-14.16-3.25-0.27-90.42-24.55-102.69
		c-19.36-14.48-5.21,26.74-18.31,33.74C222.57-94.65,270.3-122.02,275.49-48.42z"/>
	<path class="st34" d="M275.49-48.42c-0.97-5.66-1.94-11.32-2.91-16.98C275.6-60.06,275.78-54.4,275.49-48.42z"/>
	<path class="st34" d="M273.4-68.41c0.04-3.32,0.08-6.63,0.12-9.95C273.48-75.05,273.44-71.73,273.4-68.41z"/>
	<path class="st28" d="M449.12,464.92c1.99-2.01,3.99-4.01,5.98-6.02C453.11,460.91,451.12,462.91,449.12,464.92z"/>
	<path class="st28" d="M441.1,475.88c1.35-1.65,2.71-3.3,4.06-4.95C443.8,472.59,442.45,474.24,441.1,475.88z"/>
	<path class="st28" d="M433.15,488.89c1.33-2.34,2.66-4.67,3.99-7.01C435.82,484.22,434.49,486.56,433.15,488.89z"/>
	<path class="st59" d="M64.88,533.83c-0.07-6.36,8.63-8.76,5.75-15.29c-1.28-3.38-1.91-6.11,3.16-6.82
		c4.16-1.23,6.36-28.35,10.49-12.93c-0.11,5.8,5.81,9.84,3.57,16.07c-13.37,0.01-4.26,19.11-16.49,18.72
		c-8.86-3.95,4.59,7.24-2.85,6.2c-13.11,12.34-0.29,31.45-10.62,44.99C56.91,566.21,55.96,551.18,64.88,533.83z"/>
	<path class="st22" d="M54.35,93.54c-1.73,1.03-2.77,1.12-3.31-0.74C51.94,90.97,52.53,91.62,54.35,93.54z"/>
	<path class="st22" d="M66.03,91.99c-0.94-0.96-1.27-1.35,0.01-1.8C67.03,90.49,66.51,91.2,66.03,91.99z"/>
	<path class="st60" d="M501.09,190.36c5.03-23.48-0.95,49.02-4.83,41.5C490.68,221.81,493.14,195.28,501.09,190.36z"/>
	<path class="st19" d="M60.9,541.83c1.57,8.14-1.11,15.17-1.99,22.96C48.48,559.53,59.01,549.62,60.9,541.83z"/>
	<path class="st19" d="M59.9,565.8c-0.99,2-1.99,4.01-2.98,6.01C55.77,568.74,56.05,566.38,59.9,565.8z"/>
	<path class="st19" d="M64.89,534.84c-1.33,2.33-2.67,4.66-4,7C62.23,539.5,63.56,537.17,64.89,534.84z"/>
	<path class="st34" d="M498.14,231.14c16.79,18.76,14.35,52.31-3.67,67.84c3.88-19.04,20.98-44.54,2.25-60.75
		C496.08,236.09,495.89,232.28,498.14,231.14z"/>
	<path class="st25" d="M375.34,291.18c-3.83-3.82-2.24-11.68,4.71-10.14C379.47,284.13,376.66,287.87,375.34,291.18z"/>
	<path class="st61" d="M498.02,234.21c10.01,22.87-13.67-14.62-19.01,1.47c-11.81,18.59,2.22,18.61-2.5,29.23
		c-11.15,8.95-5.9,29.5-19.43,33.21c9.71-19-0.84-40.92,10.63-57.96c9.78-9.4-10.34-22.87,5.32-28.4
		c10.23-15.63,23.98-8.16,16.53,7.42C486.38,222.46,499.1,227.17,498.02,234.21z"/>
	<path class="st27" d="M471.11,210.26c-10.09,10.4,5,18.43-2.7,29.6c-13.6,12.88,1.06,31.33-8.32,45.27
		C459.46,266.47,450.47,220.74,471.11,210.26z"/>
	<path class="st62" d="M460.09,285.13c-0.96-20.27,2.85-38.12,7.32-56.17c-4.08-9.35-3.96-13.75,5.67-17.71
		c-11.18,8.81,6.94,15.78-1.45,26.17C461.52,246.49,465.75,293.92,460.09,285.13z"/>
	<path class="st63" d="M372.27,149.35c-2.71,38.17,30.42,45.09-6.54,73.8c6.91,11.8,22.33,38.37-1.9,20.07
		c-4.55-2.24-8.75-27.52-2.21-27.82c7.5-5.99-3.19-8.19-4.64-14.09c-2.48-7.06-8.48,2.3-12.24-1.65
		c-9.94-4.06,4.26-21.32-3.52-22.94c-23.06,8.37-2.71-35.87-7.88-50.55c14.94-11-1.69,23.57,11.03,20.66
		c9.54-3.5,6.5,12.31,6.06,10.31c2.03-15.5,17.11-1.8,16.37-14.47c0.89-8.56-2.91-22.34,4.47-27.94
		C375.46,124.7,369.4,138.19,372.27,149.35z"/>
	<path class="st15" d="M377.23,250.21c10.87,0.98,0.68,47.73-3,29.4c2.37-5.11,0.56-10.9,2.81-16.01
		C376.16,259.2,372.07,254.28,377.23,250.21z"/>
	<path class="st26" d="M372.27,149.35c0-7.32,0-14.65-0.01-21.97C374.71,132.38,371.69,142.62,372.27,149.35z"/>
	<path class="st64" d="M434.16,327.09c12.71-11.65,33.78-44.58,49.43-25.5c-1.41,12.37-6.35,40.22-23.7,30.8
		C444,327.57,444.1,360.89,434.16,327.09z"/>
	<path class="st61" d="M457.07,303.12c-11.39,13.61-5.49,4.65,0.1-4.96C458.94,299.16,459.27,302.48,457.07,303.12z"/>
	<path class="st38" d="M371.31,115.33c-12.97,7.99,3.83-39.68-7.82-48.77c-4.49-6.08-14.65,5.92-18.83,2.07
		c-8.62-18.5-10.34,5.82-6.72,8.4c4.46,2.85,5.72-4.34,9.84-3.25c5.92,6.43,8.34,17.19,12.43,25.6c1.25,4.46-6.07,6.67-3.13,11.65
		c0.23,22.55-14.24-1.94-16.27-11.02c0.64,6.14,3.35,21.58-6.4,19.02c-3.74-13.82,1.98-28.51-7.57-40.33
		c2.46-36.48,1.02-69.96-4.47-106.14c2.22-8.05,10.38-4.63,16.16-5.08c15.95,0.14,14.96,3.54,18.64,18.05
		C364.55,28.89,380.06,70.3,371.31,115.33z"/>
	<path class="st26" d="M371.31,115.33c0.66-7.97,1.32-15.94,1.99-23.92C372.67,101.8,372.87,141.63,371.31,115.33z"/>
	<path class="st65" d="M473.09,212.25c6.59-2.93,15.13-38.68,15.37-21.88c-2.54,5.49,4.65,8.42,7.26,3.29
		c10.2-8.95-5.64,32.19,2.31,40.55c-2.09-9.26-11.78-7.33-15.77-15.16C498.26,210.92,483.24,198.41,473.09,212.25z"/>
	<path class="st61" d="M500.22,191.23c-1.41,11.99-14.16,13.34-15.84,1.4C486.23,178.63,508.71,171.27,500.22,191.23z"/>
	<path class="st65" d="M455.16,453c1.99-2.02,3.98-4.04,5.97-6.05C459.13,448.97,457.15,450.99,455.16,453z"/>
	<path class="st1" d="M151.87,200.96c6.88-6.87-4.54-19.49-3.63-27.26c0.34-2.91,3.13-4.87,6.02-4.36
		c8.53,1.5,34.12-6.57,41.03-4.43c2.45,0.76,3.17,3.88,1.41,5.75c-4.24,4.51-12.26,0.97-16.57,6.74c-0.33,0.44-0.8,0.76-1.3,0.99
		c-17.93,7.9,5.33,17.66,9.22,26.79c3.04,6.96,8.69-0.76,11.67-3.77c5.5-3.79,11.05,9.07,9.12,15.08c-0.65,2.02-2.9,3.09-4.81,2.16
		c-3.78-1.83-6.33,5.4-9.95,2.92c-0.2-0.14-0.41-0.27-0.64-0.36c-6.38-2.53-17.71-7.01-22.74-3.42c-0.56,0.4-0.94,1-1.16,1.65
		c-1.12,3.43-2.4,3.62-6.04,1.54c-12.65-6.62-2.95,9.72-6.24,15.26c-11.38,18.73,6.42,56.54-4.97,60.55
		c-1.37,0.48-0.86-3.68-1.77-4.8c-4.89-5.96-8.16-84.37,1.18-90.89C151.9,200.99,151.71,201.12,151.87,200.96z"/>
	<path class="st1" d="M197.63,166.31c-12.13,8.27-76.87,1.55-45.56-9.96c19.89-0.03,39.95,1.11,58.51-8.09
		C224.79,150.96,205.61,172.3,197.63,166.31z"/>
	<path class="st66" d="M152.76,159.27c-16.47,6.44-15.46-6.43-14.74-18.32c-1.57-2.57-9.44-12.6-1.92-10.98
		c4.71,6.98,9.31,14.82,18.94,13.52c12.3,7.99-3.07,5.31-7.04,8.25C147.09,155.66,156.54,154.66,152.76,159.27z"/>
	<path class="st39" d="M133.76,130.35c-2.77,8.49-4.09-18.02,7.93-19.03c4.01-0.36,3.3,4.1,0.03,4.49
		C135.75,117.68,137.89,126.49,133.76,130.35z"/>
	<path class="st66" d="M146.54,165.44c4.06,1.27,8.12,2.53,12.19,3.8C154.46,169.5,150.59,166.59,146.54,165.44z"/>
	<path class="st67" d="M112.82,167.3c2.36,27.44,4.87,53.17,24.98,73.91c4.36,4.27-1.5,22.43-4.2,11.62
		c0.95-4.35-1.1-10.3-6.33-7.64c-46.79,7.44-27.51-34.05-40.68,0.43c-3.06,5.32-2.01,22.4-7.77,8.58
		c-0.08-12.09,9.51-22.15,9.05-34.82c-2.29-10.92,11.7-14.71,6.72-25.27c-1.22-4.36,6.2-7.42,7.6-6.02c-7.98,0.72-9.22-7.83-1-8.66
		C109.44,179.3,107.25,166.02,112.82,167.3z"/>
	<path class="st35" d="M89.73,41.43c5.41-10.26,9.14,3.23,13.05,8.06c-5.34,4.69-19.73-6.17-15.51,7.72
		C95.04,84.16,73.53,50.19,89.73,41.43z"/>
	<path class="st36" d="M85.85,46.47c-5.49,10.02,3.08,18.8,2.62,28.45C88.38,109.41,78.72,58.55,85.85,46.47z"/>
	<path class="st68" d="M90.24,21.9c1.77-3.08,3.12-5.77,4.85-8.19C104.12,11.2,94.88,34.65,90.24,21.9z"/>
	<path class="st69" d="M112.82,167.3c-16.69-1.42,9.65-50.9-7.43-38.5c-1.32,10.63-17.91,3.23-12.03-4.59
		c5.75-10.21-2.98-20.08-0.08-31.35c3.71-5.44,1.01-17.47,6.51-19.51C91.23,115.66,129.13,121.17,112.82,167.3z"/>
	<path class="st70" d="M112.78,72.41c-1.53,2.85-9.52,3.66-4.01,7.29C110.78,93.41,97.34,72.44,112.78,72.41z"/>
	<path class="st68" d="M99.8,73.35c-4.78,19.43-4.44,39.66-2.55,57.31c17.77-13.69,21.1,5.71,11.98,21.7
		c-0.66,10.57,9.14,28.29-8.65,30.2c-8.27,3.81,18.94,2.28,6.33,8.64c-5.14-1.15-11.12-2.2-9.15,5.59
		c-8.77,38.19-7.7-15.2-1.98-29.93c0.41-2.75,0.72-9.1-3.2-9.06c-7.23,6.23,1.98,20.94-1.46,29.45
		c-13.31-4.48-2.64-43.13-10.23-57.51c-0.66-2.88,0.4-12.4,4.02-6.22c0.5,1.62,0.18,5.25,2.57,0.6c8.08-12.98-0.6-27.55,4.72-41.62
		c-8.11,18.2-6.9-26.66-4.15-34.26C106.09,42.1,107.37,61.28,99.8,73.35z"/>
	<path class="st71" d="M87.81,188.29c6.47-9.31-8.3-33.44,4.74-34.94C108.61,153.61,85.48,250.58,87.81,188.29z"/>
	<path class="st68" d="M86.01,89.56c7.96-0.49,1.81,12.15,5.21,16.62c3.41,5.32-4.08,10.11-5.74,15.06
		C76.33,121.72,88.7,97.7,86.01,89.56z"/>
	<path class="st67" d="M87.91,197.21c3.99,4.07,1.68,8.61,0.98,13.03C88.57,205.9,88.24,201.55,87.91,197.21z"/>
	<path class="st72" d="M134.76,120.37c5.91-5.56,12.09-13.65,20.98-12.92C164.8,120.73,144.31,128.65,134.76,120.37z"/>
	<path class="st73" d="M236.58-44.43c5.74-84.1,39.54-22.21,34.84,23.37c0.46,8.56-14.55,1.41-15.02,12.08
		C239.7,19.04,243.41-34.63,236.58-44.43z"/>
	<path class="st74" d="M243.56,89.42c2.35-21.98-6.09-66.3,27.63-40.16c23.74-2.88-0.3,24.59,7.34,33.79
		c3.08,8.5-13.61,22.25-14.99,8.6c2.1-6.08-2.45-7.66-5.74-10.86C264.61,93.8,240.01,111.47,243.56,89.42z"/>
	<path class="st75" d="M279.44,24.52c-7.06-66.37,16.34,46.71,0.42,45.9C283.58,55.5,282.47,40.1,279.44,24.52z"/>
	<path class="st75" d="M239.63,44.61c-6.52-14.13-6.56-29.46-0.84-44.14C242.85,15.72,240.17,29.7,239.63,44.61z"/>
	<path class="st76" d="M281.54,67.52c-2.07,5.54,0.8,14.81-3.51,18.29C267.5,80.43,286.95,38.47,281.54,67.52z"/>
	<path class="st76" d="M242.54,91.41c-0.22-6.25,4.07,5.23,2.37,6.34C241.3,96.69,244.21,93.19,242.54,91.41z"/>
	<path class="st77" d="M196.64,50.47c7.42,8.51-6.89,34.98-3.91,15.48c4.58-9.85-13.13-20.22-10.08-30.15
		C194.85-10.34,187.44,21.13,196.64,50.47z"/>
	<path class="st55" d="M151.65,121.32c4.37-8.48,3.35-23.76,17.82-19.33c10.73,3.45,29.63-7.94,32.86,9.02
		C230.99,126.4,159.2,124.94,151.65,121.32z"/>
	<path class="st44" d="M187.74,7.51c5.36,18.24-6.64,33.31,6.07,48.87c2.4,12.13,1.76,29.08,1.8,43.04
		c-3.79-9.12-3.06-19.37-4.79-28.87c8.13-19.86-48.23-43.66-10.03-50.54C187.89,28.57,186.1,11.15,187.74,7.51z"/>
	<path class="st41" d="M173.04,81.7c-2.02-6.25-4.49-11.31,5.55-7.56c1.82,0.47,6.02-5.51,8.06-1.47
		C194.22,91.69,172.11,102.61,173.04,81.7z"/>
	<path class="st78" d="M191.64,102.45c-20.41,0.07-40.29,10.26-32.15-17.82c0.05-2.45,2.18-3.19,3.61-1.35
		C172.94,115.27,186.25,91.1,191.64,102.45z"/>
	<path class="st19" d="M191.64,102.45c51.39-5.97,25.46,58.25,26.54,28.06c2.04-10.82-13.81-11.7-20.98-17.39
		C198.89,106.13,198.71,104.1,191.64,102.45z"/>
	<path class="st77" d="M199.62,102.42c-9.86-10.62-4.07-42.36-1.88-7.1c0.98,8.09,9.92,0.48,10.49,8.08
		C205.05,105.74,202.47,102.92,199.62,102.42z"/>
	<path class="st66" d="M174.65-47.86c14.75,13.24,24.63,51.02-0.12,57.87c-7.27-0.25-9.74,16.37-12.55,3.91
		C159.1-1,159.2-15.23,164.03-29.32C158.64-39.78,167.64-41.95,174.65-47.86z"/>
	<path class="st45" d="M167.72-75.32c0.16-5.18,1.13-18.06,9.24-11.65c5.93-0.14,9.38-2.22,10.99,4.77
		c-5.02,14,10.71,44.79-6.76,28.23C170.2-55.84,178.93-89.72,167.72-75.32z"/>
	<path class="st45" d="M191.63-46.42c5.7,7.58,1.34,16,1.99,24C193.79-30.51,193.73-38.53,191.63-46.42z"/>
	<path class="st79" d="M328.35,77.46c-14.03-3.46,3.66-62.99-4.89-85.07C337.2,18.19,322.84,50.58,328.35,77.46z"/>
	<path class="st48" d="M338.36-60.4c-9.45,2.38-13.39,0.93-11.89-9.75C331.75-74.04,334.77-63.28,338.36-60.4z"/>
	<path class="st64" d="M239.54,135.37c4.4-13.88,6.01-0.48,4.52,6.41c2.58,4,15.96,13.93,19.61,4.91c1.7-2.78,0.65-7.93,4.27-9.06
		c9.07-0.55,3.32-16.85,11.77-14.42c-10.45,29.61,25.93,65.99,2.42,90.78c-6.25-2.76,1.7-10.56,1.04-15.5
		c-10.79,5.67-20.94-3.49-32.38-3.46c-14.52-2.44-37.18,8.65-14.62-13.51c7.16-9.98,33.54,21.58,36.75-1.59
		c-9.12,5.42-9.91-5.52-16.28-11.49c-6.81-7.57-11.69,9.88-18.1,8.74C233.74,166.41,236.45,147.61,239.54,135.37z"/>
	<path class="st75" d="M279.49,127.38c-2.58-16.18-4.65-40.65,2.92-53.97C281.84,91.11,281.62,109.61,279.49,127.38z"/>
	<path class="st80" d="M282.5,147.33c0.37,7.31,2.23,15.23,2.34,22C279.23,165.68,282.51,153.91,282.5,147.33z"/>
	<path class="st75" d="M279.42,155.34c-3.73-3.33-2.29-6.67-0.04-10.02C279.39,148.66,279.41,152,279.42,155.34z"/>
	<path class="st75" d="M279.44,144.34c-2.44-2.66-2.43-5.32-0.03-7.99C279.42,139.01,279.43,141.68,279.44,144.34z"/>
	<path class="st75" d="M279.45,134.35c0.01-2,0.02-4,0.03-5.99C279.47,130.36,279.46,132.36,279.45,134.35z"/>
	<path class="st81" d="M101.83,517.87c-0.3-3.63-2.97-14.75,4.66-10.7c8.58,4.14,10.3-10.06,16.77-9.58
		c3.42-1.93,1.98-11.92,0.59-14.46c-35.61-13.03-22.3-53.02-18.47-81.69c2.78-17.54-8.7-39.6-4.02-55.06
		c6.64-1.1,9.01,11.1,9.07,16.55c0.3-5.8,6.72-17.3,12.8-17.85c15.03,10.58,7.17,38.62,22.59,50.49
		c5.59,8.88,20.95,19.89,6.29,27.11c0.57,10.15-9.9,4.98-15.54,11.62c-20.62,10.13,5.51,21.73,6.89,33.17
		c-8.46-1.17-19.15,2.68-13.2,13.32c8.79,9.61-2.66,14.61-2.7,24.52c-0.63,2.8-1.33,5.08-4.87,2.01
		C114.89,504.26,108.34,514.59,101.83,517.87z"/>
	<path class="st50" d="M158.71,417.01c-7.26-9.03-11.87-16.27,2.93-11.09c3.6-9.23,3.07-21.09,3.52-31.58
		C168.4,354.72,177.65,433.68,158.71,417.01z"/>
	<path class="st82" d="M167.7,370.04c0.49,7.01-2.19,46.62-9.81,30.09c8.78-19.81-3.75-37.44,2.27-55.96
		C166.39,339.86,162.77,364.62,167.7,370.04z"/>
	<path class="st81" d="M161.66,417.02c6.58,3.07,4.71-0.78,7.01-6.02C169.49,417.88,168.24,422.7,161.66,417.02z"/>
	<path class="st53" d="M439.21,456.96c-7.46,5.05-31.67,39.88-28.62,25.67c11.56-18.82,57.46-62.88,14.74-35.35
		c-5.12-0.3-12.66,5.77-15.21-0.87c-5.2-3.63-2.73-7.41,2.43-6.14c5.32-0.95,1.3-4.45,1.96-6.62c-1.94-8.14-15.59,12.14-16.13,3.84
		c8.4-13.7,17.56-26.9,25.1-41.46c3.37-16.1,10.81-27.79,27.23-16.25c8.25,2.02-0.1,8.94,0.6,14.55
		c8.82-12.4,20.31-1.55,16.01,10.13C472.71,423.28,446.69,440.01,439.21,456.96z"/>
	<path class="st52" d="M392.35,479.94c-6.45,19.1-33.75,14.59-49.43,18.15c-7.41-5.17-21.02,1.67-29.72-7.24
		c-2.6-5.32,13.83-16.7-0.11-14.3c-5.66,5.86-19.11,13.98-25.54,9.34c-1.27-1.64-1.57-7.31-4.65-1.08
		c-5.59-3.26,4.26-11.33-3.92-15.65c-13.15-16.4,18.54-21.72,30.59-29.62c4.58-1.59-0.69-9.78,2.03-15.23
		c-0.67-7-5.89,3.49-7.53-5.79c-0.76-17.84,20.98-7.35,11.37,5.64c-0.9,2.34,1.21,16.65,6.5,12.58c6.18-4.74,2.86-22.99,8.02-5.85
		c2.33,7.7-2.22,17.18,1.03,24.23c2.85,15.29-10.8,43.13,17.17,31.54c12.76,3.95,24.89-1.75,34.9-8.76
		c-11.16-14.89-5.81-19.57,7.61-30.98c3.41,3.85-1.13,8.2-1.04,12.24C385.29,467.65,399.68,472.71,392.35,479.94z"/>
	<path class="st83" d="M327.3,423.96c-7.67-3.08,9.71-27.94-3.27-26.15c-8.28-2.36,5.87-11.89-9.19-7.44
		c-1.43-24.41,15.33-49.05,9.85-73.97c-5.27-12.53-16.24,69.83-22.77,50.62c11.8-43.25,23.64-119.18,37.88-25.21
		C354.36,355.98,332.28,405.15,327.3,423.96z"/>
	<path class="st84" d="M223.59,376.04c1.2-35.19,4.89-71.78,7.95-104.72c1.09-5.62-3.15-13.41,1.7-17.6
		c14.88-1.88,4.93,36.83,17.89,29.43c29.82-32.31,5.95-29.89,11.43-58.36c27.36,8.47,6.81,44.65,7.58,64.99
		c-1.48,53.37-11.32,73.54-7.27,4.74c0.18-16.3-23.59,36.6-26,6.59C226.61,302.97,231.15,357.16,223.59,376.04z"/>
	<path class="st85" d="M159.73,303.13c-1.82,63.87-21.42-103.41,16.14-48.1c-7.59,6.75-2.77,27.41,6.2,16.34
		c3.91-8.4-6.33-34.58,8.49-31.66c24.43,4.27-4.35,79.9-2.71,45.32c-1.84,9.3-4.31,22.06-8.83,29.8
		C170.11,316.23,157.61,271.51,159.73,303.13z"/>
	<path class="st3" d="M417.21,448.69c5.55-4.51,12.32-2.66,17.03-8.69c47.82-42.64-32.66,72.25-30.53,47.5
		c-3.62-6.88,2.45-12.54-0.05-19.1c-7.02,10.98-3.6-2.78,1.33-6.78c4.45,0.28,6.06,5.97,8.48-1.03
		C417.33,455.81,423.34,455.11,417.21,448.69z"/>
	<path class="st86" d="M159.73,303.13c-5.09-3.39-3.3-15.28,3.08-12.95c6.44,6.53,5.89,18.07,15.82,20.96
		c-5.92-31.29,0.96,1.42,8.65-32.02c10.53,8.38,1.3,56.04,9.34,76.94c1.45,39.12-7.9-40.65-15.84-27.68
		C169.75,350.51,165.73,272.87,159.73,303.13z"/>
	<path class="st87" d="M262.41,413.08c-12.43-19.57,8.61-102.82,11.33-39.6c-3.43,6.74-3.06,20.12,4.56,23.87
		c10.74,4.59-10.1,14.45-0.14,17.35C301.99,381.09,273.17,462.22,262.41,413.08z"/>
	<path class="st88" d="M393.26,476.94c-19.08-21.11,8.8-47.65,15.41-65.05c11.11-10.9,9.73-30.51,25.08-36.32
		c-4.88,29.56-39.17,53.98-39,82.32C395.37,462.04,397.83,475.92,393.26,476.94z"/>
	<path class="st89" d="M194.62,368.06c-1.68-15.4,13.75-6.89,5.6-0.96c3.4,12.83,6.28,52.17,21.33,18.9
		C218.15,431.92,192.8,393.54,194.62,368.06z"/>
	<path class="st90" d="M262.41,411.64c17.11,39.94,32.23-28.5,38.48-44.55C314.73,364.76,267.53,478.56,262.41,411.64z"/>
	<path class="st88" d="M335.36,494.89c20.22,1,41.73,1.06,56.89-13.99C387.91,500.78,349.4,501.45,335.36,494.89z"/>
	<path class="st1" d="M262.49,368.04c-1.31,13.34-1.08,26.69-0.78,40.07C252.12,419.89,259.94,342.75,262.49,368.04z"/>
	<path class="st7" d="M217.9,439.56c2.05-2.51,7.22,4.11,7.71-2.98C235.28,449.68,198.53,443.81,217.9,439.56z"/>
	<path class="st3" d="M407.22,443.96c-0.89,5.13-3.2,8.49-8.15,10.39C399.31,447.87,398.68,442.86,407.22,443.96z"/>
	<path class="st53" d="M396.22,468.97c-2.77-5.49-7.63-17.47-1-22.08C395.56,454.25,395.89,461.61,396.22,468.97z"/>
	<path class="st84" d="M262.49,368.04c-1.42-6.29-4.87-17.4-0.33-22.02C269.8,349,261.9,361.6,262.49,368.04z"/>
	<path class="st1" d="M262.49,347.08c-0.89,15.19-6.32,2.03-3.81-3.45C261.45,338.26,269.33,345.27,262.49,347.08z"/>
	<path class="st82" d="M162.7,342.08c-6.51-6.25-2.39-15.24-2.96-22.99C161.26,326.7,162.32,334.34,162.7,342.08z"/>
	<path class="st3" d="M393.81,506.55c-2.02-4.89-4.53-6.14-1.18-9.71C396.53,500.14,396.2,501.07,393.81,506.55z"/>
	<path class="st51" d="M238.58,454.11c-3.13,2.01-3.84,2.21-6.01-0.23C234.88,451.61,235.6,452.16,238.58,454.11z"/>
	<path class="st84" d="M221.66,391.08c-0.53-4.51,0.76-8.74,1.9-13.06C222.92,382.37,222.29,386.72,221.66,391.08z"/>
	<path class="st53" d="M393.26,476.94c0.99-2.01,1.99-4.03,2.98-6.04C398.7,474.75,391.59,484.04,393.26,476.94z"/>
	<path class="st51" d="M201.87,497.37c-0.89-1.95-1.27-2.26,0.41-3.16C203.45,495.46,202.79,495.7,201.87,497.37z"/>
	<path class="st54" d="M306.41,570.77c0.09-4.12-0.8-8.73,5.02-9.95C309.76,564.14,308.09,567.45,306.41,570.77z"/>
	<path class="st54" d="M303.44,582.79c0.66-2,1.32-4.01,1.98-6.01C304.76,578.79,304.1,580.79,303.44,582.79z"/>
	<path class="st34" d="M495.21,299.27c-2.01,5.62-10.22,38.09-10.21,23.09C488.57,316.08,487.79,300.01,495.21,299.27z"/>
	<path class="st65" d="M489.1,315.22c-9.49,35.7,1.9,76.97-17.91,109.82C475.62,413.16,478.25,298.61,489.1,315.22z"/>
	<path class="st65" d="M464.16,442.06c-1.36-4.65-0.36-8.02,4.91-9.08C469.03,436.07,466.81,440.76,464.16,442.06z"/>
	<path class="st28" d="M465.08,441.94c1.33-2.33,2.67-4.66,4-7C467.75,437.28,466.42,439.61,465.08,441.94z"/>
	<path class="st91" d="M474.06,413.97c-10.57,1.75,1.07-22.28-9.43-26.58c-6.35-5.53-6.41-5.46-2.09-12.64
		c16.97-12.09,16.8-34.08-7.45-20.15c-34.01,1.56,5.54-20.71,18.45-21.51c2.95-4.93,3.05-13.22,6.27-18.24
		c2.11-7.2,1.55-41.05,14.46-25.89C483.57,329.79,474.55,371.75,474.06,413.97z"/>
	<path class="st92" d="M465.11,375.05c-9.96,9.7,9.8,13.38,6.36,24.68c3.39,12.27-4.87,37.53-16.3,33.26
		c10.75-9.69,20.57-34.05,7.56-42.95C451.39,389.46,455.78,365.8,465.11,375.05z"/>
	<path class="st52" d="M455.06,433.9c-3.26,8.15-11.04,15.3-15.86,23.07C444.49,449.29,449.77,441.6,455.06,433.9z"/>
	<path class="st93" d="M128.67,326.05c1.77,11.43-11.8,8.45-16.15,17.37c-6.87,16.35-15.42-22.39-13.32-0.39
		c-6.96,12.31-7.09-25.66-12.28-29.61c-9.09-11.63,0.16-26.87,1.95-39.55c8.55-8.84-7.66-13.01-5.87-22.86
		c7.94-9.16,51.68-12.13,43.46,12.64c1.78,5.71,1.47,12.12,7.87,14.27C144.09,290.35,130.79,311.43,128.67,326.05z"/>
	<path class="st94" d="M95.84,346.09c-2.81-21.12,5.23-21.65,11.62-2.28c34.8-40.04,17.19,50.4,47.19,56.17
		c5.85,17.4-15.97-7.04-18.35-13.56c-1.79-18.18-15.77-57.55-22.79-21.04c-1.35,13.33-7.2-12.74-11.1-15.96
		C103.1,377.91,102.2,368.73,95.84,346.09z"/>
	<path class="st95" d="M91.85,338.1c-0.67-2.33-1.34-4.67-2.02-7C92.34,332.28,93.1,336.16,91.85,338.1z"/>
	<path class="st19" d="M81.83,493.91c2.78,17.72-11.17,16.8-9.09,24.78c3.33,10.62-8.06,9.35-4.03-1.09c0.05-3.05-2-6.94,3.67-7.1
		C74.59,504.14,73.78,496.49,81.83,493.91z"/>
	<path class="st85" d="M104.89,393.94c1.64,11.43,3.06,32.03-4.01,39.07C96.61,425.22,105.16,405.68,104.89,393.94z"/>
	<path class="st11" d="M87.84,514.86c-2.05-12.29-9-23.07-11-34.96C82.67,490.49,90.01,502.36,87.84,514.86z"/>
	<path class="st85" d="M103.92,374.99c0.29,4.01,0.58,8.03,0.87,12.04C101.25,383.25,101.53,379.19,103.92,374.99z"/>
	<path class="st95" d="M87.87,324.09c-8.75-16.53-7.17-32.57-1.16-50.78c7.62-5.05-6.6-15.25,2.14-12.14
		c10.24,9.41-4.33,23.45-2.56,36.05C82.14,304.71,98.86,333.03,87.87,324.09z"/>
	<path class="st87" d="M92.84,336.09c-1.8-2.91-4.09-5.18-0.97-7.99C92.2,330.76,92.52,333.43,92.84,336.09z"/>
	<path class="st65" d="M489.1,315.22c-3.65-14.21,9.94-26.62,8.31-40.6c-3.69-11.03,4-20.52,1.96-30.68
		C516.51,232.25,499.55,299.06,489.1,315.22z"/>
	<path class="st96" d="M367.25,306.11c-26.44,33.16,13.11-43.05,6.03-54.8C389.27,252.94,371.1,294.1,367.25,306.11z"/>
	<path class="st15" d="M367.38,304.21c-0.16-6.94,3.59-12.11,7.76-17.08C375.35,293.34,370.66,299.11,367.38,304.21z"/>
	<path class="st87" d="M500.05,241.18c2.58,6.41,6.86,9.69,0.09,14.43c-0.09,9.44,0.6,19.07-0.81,28.34
		c-5.49,9.18-3.92,16.83-9.19,3.94c-7.84,7.5-4.94,20.53-11.01,29.26c-4.39-3.65,7.06-14.57-0.45-17.26
		c-10.06-2.49-14.38,1.55-18.16,10.42c-5.99-13.24,5.5-32.28,12.49-45.02c2.88-2.61,3.39-5.9-0.16-8.95
		C466.28,239.06,487.63,214.22,500.05,241.18z"/>
	<path class="st64" d="M463.14,289.16c-2,4-4,8.01-6,12.01C456.63,296.43,461.09,293.13,463.14,289.16z"/>
	<path class="st73" d="M335.33,124.34c4.97-10.18-1.15-24.92,7.61-32.46c2.37,4.2,7.48,35.11,10.8,19.8
		c2.47-12.31,1.89-20.84-4.87-32.5c-6.16-5.77-15.64,5.74-15.51-11.75c2.22-0.01,4.78,3.27,4.97,2.61
		c-8.81-3.84,8.24-27.21,4.74-7.07c0.59,7.2,14.3,1.43,15.75-3.86c22.43,19.02,9.6,67.62,7.94,95.28
		c-14.96-14.36-11.07,16.87-22.39,8.19c11.12-22.41-5.84-3.05-8.3-18.53C334.91,136.93,340.71,130.41,335.33,124.34z"/>
	<path class="st97" d="M375.33,249.18c1.78,9.16,3.75,24.37-6.03,29c-4.09-1.3-3.69-4.51-3.19-7.69
		c0.73-17.09-13.86-14.69-18.34-1.93c-8.74,6.89,3.56,29.53,12.02,15.23c2.14-3.27,4.79-9.06,9.52-5.63
		c0.62,6.43-18.94,75.97-21,47.04c5.82-15.37-18.07-5.28-14.77-20.53c-4.96-15.45-14.85-59.87,12.88-57.58
		c15.13,4.72,5.82-20.23,5.18-26.94c-9.32-1.49-17.92,7.71-21.03,16.03c-3.75,11.5-12.05,4.66-5.75-4.44
		c0.67-5.26,11.6-12.57,6.39-16.18c-11.69-10.54,4.2-20.05,14.28-15.53c3.52,3.2,9.11-5.55,11.29,1.04
		c1.53,5.3,10.56,10.53,6.41,16.11c-6.59,2.22-0.08,12.94-0.36,18.25C364.72,242.9,373.98,241.35,375.33,249.18z"/>
	<path class="st96" d="M363.18,217.17c-3.86-4.54-5.14-16.47-12.61-14.85c-5.36,4.17-21.06-6.39-19.78,7.19
		c4.03,7.96,16.02,2.9,1.88,12.78c-12.65,6.04-4.52,25.37-13.32,29.94c-3.38-12.34,14.79-26.13,5.08-36.88
		c-5.3-3.48-5.81-8.94-4.15-14.48c-0.79-6.89,12.53-1.72,6.89-9.19c-2.44-5.17,2.77-10.12,3.15-15.4
		c6.13-0.59,12.09-4.75,17.11-5.83c4.73,7.53-11.59,23.84,2.09,27.36c4.95-0.63,10.1-3.16,10.96,5.04
		C366.11,207.97,373.64,211.37,363.18,217.17z"/>
	<path class="st96" d="M478.09,315.13c4.8,29.67-19.62,21.08-31.78,34.19c-4.24,4.3,11.02,8.72-9.97,10.07
		c-1.3-0.42-2.63-0.62-3.28,1.1c-2.52,9.71-15.03,0.31-5.03,7.34c10.04,9.37-5.16,8.58-6.66,12.82c-0.94,5.97-7.79-1.04-5.74,0.68
		c3.4,5.79,0.16,14.45-2.78,20.15c-6.53,35.76-21.54-5-27.19,10.93c-1.37,7.41,3.4,20.3-6.32,17.05c4.33,1.26,2.73,4.3,0.24,6.16
		c-12.07,12.88,13.46,5.34,4.64,17.95c-69.34,101.95-61.58-32.93-41.12-83.93c2.4-5.51,5.88-14.51,8.2-20.21
		c-8.2,20.21,5.47,42.32-10.05,57.16c25.61-24.5,48.34-1.27,58.53-17.23c-3.68-30.04,9.24-10.92,13.93-27.21
		c-0.92-16.5,11.35-25.41,20.95-34.95c13.08-3.13,3.41,4.22,6.33,11.81C460.84,314.39,470.78,348.77,478.09,315.13z"/>
	<path class="st64" d="M433.14,328.07c-3.81,16.77-12.75,6.46-16.02,20.04C409.58,354,425.42,331.02,433.14,328.07z"/>
	<path class="st98" d="M342.83-13.02c4.84-19.82,15.18,9.09,12.72,17.37C347.92,12.12,340.99-5.34,342.83-13.02z"/>
	<path class="st36" d="M327.38,76.43c-1.41-16.85-6.52-34.79,1.15-50.86C333.87,40.85,329.22,60.35,327.38,76.43z"/>
	<path class="st91" d="M334.34,66.42c5.45-2.61,7.7,0.81,9.19,5.51C341.57,78.8,330.94,70.54,334.34,66.42z"/>
	<path class="st61" d="M491.84,208.13c1.34-1.43,1.78-1.64,3.17-0.52C493.98,209.22,493.73,209.7,491.84,208.13z"/>
	<path class="st31" d="M197.63,166.31c7.53,1.27-0.94,21.47,8.1,28.41c6.74,4.25,7.8,32.69-0.06,23.6
		c1.68-25.4-3.52-10.19-14.44-7.16c-9.16-8.65-27.26-19.39-19.89-35.01c5.89,0.95,6.93-2.27,11.46-4.51
		C188.21,169.7,194.81,172.41,197.63,166.31z"/>
	<path class="st99" d="M205.68,218.31c-0.45,15.24-18.43,30.18-17.4,9.88c-32.84,19.15-11.73-20.78-31.37,20.93
		c-8.8,7.77,0.16-12.7-0.49-16.82c0.35-4.32-5.07-11.4-2.39-15.51c5.91-2.78,14.61,5.94,12.42-3.12c-0.1-6.16,19.75,2.16,25.99,4.43
		C197.75,221.81,202.95,208.22,205.68,218.31z"/>
	<path class="st100" d="M152.71,249.2c5.72,5.47-2.13,14.62-0.06,22C146.36,286.86,147.57,255.11,152.71,249.2z"/>
	<path class="st66" d="M158.76,169.25c6.97,0.41,33.36-1.17,16.07,1.98C169.46,170.41,161.68,175.24,158.76,169.25z"/>
	<path class="st101" d="M157.49,148.54c12.98-1.89,26.32,1.23,39.57-0.69C216.92,159.7,136.99,168.5,157.49,148.54z"/>
	<path class="st60" d="M202.69,154.44c-12.71,0.76-1.92-10.86,5.06-12.6C224.2,142.33,212,152.75,202.69,154.44z"/>
	<path class="st78" d="M210.36,151.15c7.61-8.19-2.95-3.12-3.27-8.21c3.54-2.38,6.63-5.77,11.42-5.61
		C221.76,142.13,214.74,168.76,210.36,151.15z"/>
	<path class="st61" d="M213.47,158.17c1.8,0.55-6.19,3.67-7.91,5.04C208.19,161.53,210.83,159.85,213.47,158.17z"/>
	<path class="st102" d="M218.51,137.33c-9.66,6.87-25.32,18.21-35.85,11.18c0.65-10.75,17.13-3.62,16.97-15.73
		c1.32-5.1-1.18-7.61-6.28-6.34c-63.34,7.31-5.54,27.27-38.65,19.96c-38.66-10.98-7.34-29.68,18.28-25.08
		C188.43,120.94,233.54,107.14,218.51,137.33z"/>
	<path class="st103" d="M154.69,146.4c19.83,3.38-21.92-16.3,33.95-21.05c4.87,6.32-9.91,9.85-0.08,15.2
		c1.23,1.03,3.04,1.87,1.07,3.79c-8.55,6.21,2.35,5.24,7.85,4.43C183.32,153.98,168.19,152.06,154.69,146.4z"/>
	<path class="st49" d="M157.49,148.54c7.08,13.61-11.41,11.33-14.69,2.78C147.06,146.35,151.74,146.72,157.49,148.54z"/>
	<path class="st104" d="M154.78,121.42c-6,1.73-16.44,13.26-21.07,7.95C130.92,115.07,145.89,122.82,154.78,121.42z"/>
	<path class="st103" d="M141.79,142.31c4.3,1.36,8.6,2.71,12.9,4.07C150.02,145.78,145.05,146.41,141.79,142.31z"/>
	<path class="st66" d="M134.73,120.36c-0.34,3-0.68,6-1.02,9C134.05,126.36,134.39,123.36,134.73,120.36z"/>
	<path class="st16" d="M135.79,255.24c-4.86,1.42-12.64,14.99-11.52,5.11c4.21-14.8-24.66-16.76-31.84-8.62
		c-3.07,3.73-5.52,0.73-7.7-2.1c-1.53,4.69,9.35,16.79-1.93,9.62c-2.79-12.49,6.02-22.87,6.62-35.25
		c7.15-11.72,1.86,15.37,13.15,14.45C111.37,253.07,142.75,227.76,135.79,255.24z"/>
	<path class="st105" d="M87.96,93.35c-3.89-5.7,3.83-24.76,7.63-12.64C95.11,84.33,93.35,97.38,87.96,93.35z"/>
	<path class="st59" d="M87.96,93.35c14.34-14.12,0.83,68.88-5.99,28.08C90.14,112.96,91.85,104.41,87.96,93.35z"/>
	<path class="st72" d="M93.39,65.52c-2.93-4.85-8.3-11.4-2.5-16.03C106.6,46.6,95.16,85.53,93.39,65.52z"/>
	<path class="st69" d="M108.94,125.06c0.67,1.65,1.22,2.1-0.26,2.78C107.36,127.32,108.25,126.95,108.94,125.06z"/>
	<path class="st76" d="M277.5,125.38c-2.67,5.02,2.16,16.42-6.99,14.69c-0.74-0.17-3.23,3-3.2,4.59
		c0.25,7.31-11.18,14.45-14.88,8.34c-2.16-7.67-4.56-2.49-9.85-1.57c-2.08-16.5-3.03-38.52,2.95-54.02
		c16.59,4.9,4.95-39.22,16-17.25c10.67,3.09,1.77,15.71,8.67,13.81C283.83,72.51,277.58,115.1,277.5,125.38z"/>
	<path class="st38" d="M245.53,97.4c-1,3.33-2,6.67-3,10C243.21,101.57,240.47,84.88,245.53,97.4z"/>
	<path class="st38" d="M277.5,125.38c-0.75-17.97-3.92-38.33,3.92-54.94C280.55,87.82,280.92,109,277.5,125.38z"/>
	<path class="st38" d="M281.54,67.52c0.31-3.02,0.63-6.05,0.94-9.07C282.17,61.48,281.85,64.5,281.54,67.52z"/>
	<path class="st58" d="M218.69,148.5c5.89-20.75,5.47-39.48-19.08-46.07C227.57,100.28,228.23,129.81,218.69,148.5z"/>
	<path class="st18" d="M228.58,289.15c-13.41-1.16-8.71-33.85-14.72-44.24c8.98-9.65,19.57-31.98,9.35-43.32
		c-2.39-2.75-0.86-7.67,2.13-9.5c10.97,2.28,23.65-1.4,35.84,2.48c13.32,3.96,16.4,4.3,24.85-2.8c-0.17,7.63-2.03,20.5-7.17,24.66
		c-8.7-1-2.32,5.88-2.73,10.98c-0.87,6.51,6.59,9.44,6.85,15.61c2.27,6.36-4.12,35.12-7.98,20.49c5.42-12.15-0.38-39.2-13.59-40.36
		c-7.72,4.19-15.5-13.92-24.03-5.74C218.86,237.89,232.39,267.09,228.58,289.15z"/>
	<path class="st18" d="M286.45,407c8.98-49.93,39.08-99.73,32.93-152.8C338.34,297.25,303.42,363.9,286.45,407z"/>
	<path class="st99" d="M277.44,262.12c-2.39,31.74-15,65.37-5.96,96.94C257.87,340.54,265.69,280.73,277.44,262.12z"/>
	<path class="st66" d="M323.42,293.18c3.66-14.32-3.88-26.95-4.05-40.95c6.4-22.19,8.87-0.44,8.11,10.77
		C328.66,271.74,333.3,289.5,323.42,293.18z"/>
	<path class="st63" d="M330.35,176.29c-0.08,3.16-4.99,16.2,0.89,12.59c6.01-4.66,3.83,10.17-1.16,8.7c-8,4.78-18.39,9.51-7.77-2.07
		C327.5,190.58,325.08,181.95,330.35,176.29z"/>
	<path class="st75" d="M227.57,193.28c-13.74-3.53,22.16-34.5,28.93-28.79c5.94,0.82,8.32,16.92,12.69,11.48
		c5.99-10.67,12.71,13.82,0.7,15.31c-8.84,0.18-18.78-2.83-26.28-6.36C239.06,177.22,234.27,192.06,227.57,193.28z"/>
	<path class="st106" d="M282.47,235.22c-3.39,10.64-8.49-12.2-9.12-16.91c4.21-7.91,20.32-10.42,14.54-28.8
		c-5.44-24.47-9.08-37.61,2.17-6.47C296.73,201.85,274.83,218.48,282.47,235.22z"/>
	<path class="st75" d="M237.57,168.31c0.36-7.31,0.72-14.62,1.08-21.93C238.29,153.69,237.93,161,237.57,168.31z"/>
	<path class="st107" d="M159.71,363.06c1.01-1.66,2.02-3.32,3.03-4.98C164.49,361.43,165.58,364.36,159.71,363.06z"/>
	<path class="st52" d="M465.11,375.05c-23.15,0.36,29.54,32.97-9.95,57.93c3.12-8.75,17.94-19.47,9.55-28.26
		c-2.31-2.99-6.49-5.84,0.65-8.08c2.14-7.19-10.23-6.83-11-0.31c-6.71,10.63-8-4.73-3.64-10.35c0.29-5.91-9.98-6.21-14.06-9.33
		c-12.74-17.21,21.31-25.49,34.29-32.19C480.82,345.53,477.82,372.27,465.11,375.05z"/>
	<path class="st71" d="M328.39,447.95c8.31,6.71,1.45,39.98,12.4,35.21c3.67-0.28,6.42,6,8.69-0.18c6.19-10.76,1.03,7.29,7.83,0.83
		c1.96-11.74,12.12-15.9,18.98-24.86c9.24-4.47,9.02-21.64,18.98-23.19c0.86,8.38-10.57,17.35-15.38,24.77
		c-5.92,10.53,21.75,18.59-2.2,23.54c-12.14,6.73-41.59,13.33-51.32,1.52c-2.1-10.73,8.7-22.5,1.23-33.12
		C323.35,450.04,326.7,449.18,328.39,447.95z"/>
	<path class="st93" d="M314.29,463.72c-0.14,2.89-0.28,14.15-5.37,7.16c-3.81,7.69-18.29,13.21-23.24-3.24
		c-0.04-6.61,7.66-5.08,11.39-8.11C304.43,447.37,316.87,449.04,314.29,463.72z"/>
	<path class="st5" d="M342.47,371.63c-5.01,24.1-7.77,49.96-18.15,72.77C327.53,424.12,330.08,378.04,342.47,371.63z"/>
	<path class="st92" d="M277.44,262.12c-7.17,7.85-4.05,17.95-8.84,27.17c-1.18-8.5-0.19-16.85,4-24.26
		c9.73-8.12-7.93-53.46-8.27-28.36c10.6,18.08,2.89,33.09-10.17,47.27c-5.85,17.59-10.14-1.45-13.06-9.87
		c-1.38-12.86-15.4-23.71-6.34-35.85c-0.19-10.99-7.39,11.01-4.4,15.83c0.29,18.26,4.78,38.96-1.79,56.08
		c1.19-30.67-9.81-62.17,4.33-91.42c5.91-16.08,18.96,3.9,27.52,0.57C272.91,214.53,281.39,250.92,277.44,262.12z"/>
	<path class="st89" d="M192.59,319.18c-4.26-12.24-1.14-31.69,4.05-41.02C195.42,291.6,193.9,305.56,192.59,319.18z"/>
	<path class="st89" d="M196.62,356.07c-4.02-9.88-6.45-23.63-3.12-34.91C194.54,332.8,195.58,344.44,196.62,356.07z"/>
	<path class="st18" d="M225.58,305.13c0.66-4.33,1.32-8.66,1.98-12.99C226.89,296.47,226.24,300.8,225.58,305.13z"/>
	<path class="st103" d="M323.42,293.18c9.99-21.72-7.93-47.55,9.38-66.99c18.97-19.65,25.11-4.63,25.44,15.92
		c2.27,16.3-39.72,2.16-26.28,28.16c6.49,8.63-6.7,17.63,1.39,26.87c1.23,4.18,0.13,18.61-1.49,8.2
		C322.22,284,315.43,333.68,323.42,293.18z"/>
	<path class="st105" d="M332.34,310.14c1.7-15.56-0.41-11.39,4.45,0.05c4.66,6.04,10.8-6.62,12.88,1.35
		c6.24,23.07-0.92,48.35-10.33,71.49c-11.85,17.77,14.98-33.63-1.74-38.14C324.99,342.57,334.18,320.41,332.34,310.14z"/>
	<path class="st50" d="M325.49,383.42c-2.57-2.47-2.51-3.79,0.52-4.9C329.13,379.56,327.85,381.31,325.49,383.42z"/>
	<path class="st90" d="M303.42,367.05c-2.86-3.16,0.27-4.36,1.97-6.03C304.73,363.04,304.07,365.05,303.42,367.05z"/>
	<path class="st83" d="M231.56,274.18c-15.69-36.66,13.37-61.52,5.36-32.32C230.35,248.21,239.89,272.21,231.56,274.18z"/>
	<path class="st92" d="M234.52,274.16c-0.49-2.78,1.34-1.62,3.23-1.26C236.67,273.31,235.59,273.73,234.52,274.16z"/>
	<path class="st108" d="M196.64,278.16c-1.11-8.22,9.21-37.8-10.34-34.47c-2.96,9.02,5.99,40.35-10.21,34
		c-12.71-5.05-8.58-11.85-3.31-21.81c2.86-13.56-22.85-11.22-19.08,15.3c-8.89-13.04,16.11-43.11,5.59-45.84
		c6.34-2.74,10.42,2.4,14.51,6.8c0.49-9.37,12.79-1.57,15.74-9.43c0.21-0.46,3.23,0.35,4.95,0.57
		C188.79,238.13,215.03,259.29,196.64,278.16z"/>
	<path class="st109" d="M396.33,437c-1.58,0.44-1.69-2.06-3.28-1.3c0.25,8.08-24.26,33.81-10.67,14.78
		c3.31-8.26-18.55,4.86-6.79-18.06c-3.66-25.74,8.29,8.6,6.51-20.93c8.49-26.62,9.49-4.24,21.68,1.28c8.96-5.06,6.44-16.45,10.19-25
		c3.63-6.69-3.73-5.89-6.03-10.11c0.04-2.97,4.06-4.81,6.07-2.45c2.37,3.79,4.4,7.12,7.79,0.86c6.18-2.57,8.07-3.92,1.95-8.46
		c-8.93-6.25-2.64-15.13,4.07-5.1c-1.06-5.93,5.3-6.87,5.65-0.93c1.21,6.32,3.46,12.37-4.44,16.54
		C416.63,395.37,409.1,418.45,396.33,437z"/>
	<path class="st93" d="M411.22,412c6.86-11.09,4.13-28.89,16.35-35.65c4.69-1.32,5.93-5.19,3.39-9.14
		c-1.04-4.71-5.98-16.81,3.86-12.03c11.8,2.67,18.39-5.86,5.51,7.5C429.24,377.77,422.4,395.88,411.22,412z"/>
	<path class="st93" d="M399.24,431.97c0.29-8.88,7.62-13.53,11.98-19.97C410.11,419.66,402.93,425.26,399.24,431.97z"/>
	<path class="st18" d="M474.06,413.97c3.23-12.91-9.55-28.98,0.03-38.13c7.73-9.25,4.4-22.6,6.99-33.75
		C481.17,366.4,477.31,390.09,474.06,413.97z"/>
	<path class="st87" d="M493.02,297.12c-2.13,8.2-4.18,16.39-7.9,24.05C483.73,315.32,488.85,299.72,493.02,297.12z"/>
	<path class="st110" d="M100.98,251.17c23.18-4.09,20.8,22.37,27.9,39.26c0.19,1.39-3.98,5.05-5.32,4.67
		c-11.18-3.82-17.21,13.42-26.87,9.13c-5.75-5.12-11.04-19.01,0.11-22.12c6.92-1.13-0.11-7.33,2.43-11.19
		c3.15-3.54,1.23-4.89-1.83-6.79C89.26,260.46,91.87,250.32,100.98,251.17z"/>
	<path class="st111" d="M82.85,312.13c1.66,2.99,3.32,5.99,4.98,8.98C86.18,318.12,84.51,315.12,82.85,312.13z"/>
	<path class="st87" d="M345.35,369.05c-0.11-10.73,0.32-21.35,6.03-30.94C354.81,345.64,347.34,359.81,345.35,369.05z"/>
	<path class="st87" d="M356.29,324.13c-0.03-6.48,0.93-12.68,5.01-18.01C360.17,312.25,359.43,318.78,356.29,324.13z"/>
	<path class="st96" d="M356.29,324.13c2.88-6.12-6.93,27.57-3.92,9.96C353.39,330.65,354.43,327.26,356.29,324.13z"/>
	<path class="st105" d="M501.77,249.48c-11.99,11.74-4.77,19.8-23.01,4.51c-8.14-5.03,3.16-11.31,5.89-16.19
		C489.93,231.88,496.72,246.38,501.77,249.48z"/>
	<path class="st38" d="M353.34,67.37c0.95,3.22,4.33,6.06,0.83,7.35C351.76,71.88,349.64,71.06,353.34,67.37z"/>
	<path class="st96" d="M369.31,278.16c-13.76,19-27.83,16.2-28.09-7.85c4.23-3.32,8.73-8.29,6.78-13.64
		C364.39,249.5,372.82,263.21,369.31,278.16z"/>
	<path class="st87" d="M354.3,328.09c-0.64,2-1.29,4-1.93,6C350.69,331.36,352.19,329.94,354.3,328.09z"/>
	<path class="st32" d="M333.64,454.25c1.73-4.64,8-13.53-0.66-10.61c-1.5-4.19,5.82-24.9,8.85-15.49
		c0.69,8.15,12.07,16.72,14.82,27.2c5.68,8.37-3.23,5.38-7.33,9.41C341.12,473.02,335.46,461.84,333.64,454.25z"/>
	<path class="st87" d="M339.34,383.03c2-4.66,4.01-9.32,6.01-13.97C343.54,372.46,340.52,383.31,339.34,383.03z"/>
	<path class="st61" d="M202.75,224.35c1.22-1.23,2.24-6.54,3.85-4.11C207.52,224.69,206.92,225.33,202.75,224.35z"/>
	<path class="st112" d="M199.58,228.16c-1.01,1.7-2.03,3.41-3.04,5.11C192.93,228.82,196.52,228.65,199.58,228.16z"/>
	<path class="st77" d="M223.47,200.34c-2.1-7.95,0.01-20.2,8.25-22.94C227.63,184.58,225.16,192.83,223.47,200.34z"/>
	<path class="st89" d="M189.64,144.35c-24.13-8.2,17.69-35.06,13.01-11.98C199.75,138.06,197.59,145.62,189.64,144.35z"/>
	<path class="st5" d="M271.65,211.01c-13.28-10.2-30.51,0.94-42.2-7.11c-0.8-4.26,3.03-2.52,5.6-2.36c1.36,0.05,3.94-0.35,3.93-0.46
		C241.16,187.23,283.79,204.9,271.65,211.01z"/>
	<path class="st36" d="M277.48,214.25c-7.61,15.99,16.14,32.52,2,48.95C290.36,248.3,262.32,218.67,277.48,214.25z"/>
	<path class="st46" d="M223.47,200.34c7.83,2.2,9.63,19.64,0.04,24.84C225.62,216.94,224.16,208.66,223.47,200.34z"/>
	<path class="st112" d="M223.52,225.18c3.45,5.27-1.53,16.15-7.84,20.07C217.56,238.31,221.07,231.89,223.52,225.18z"/>
	<path class="st106" d="M284.39,252.3c-0.97-4.36-1.94-8.72-2.91-13.09C286.44,242.69,284.42,247.72,284.39,252.3z"/>
	<path class="st53" d="M445.09,363.49c10.38,7.11,8.07-15.12,16.23-4.77c12.03,0.88-4.88,21.87-11.09,17.29
		C446.21,372.43,434.27,365.5,445.09,363.49z"/>
	<path class="st96" d="M393.24,437.95c-4.57,1.26-8.92,0.17-5.92-4.95C390.02,429.64,397.87,436.7,393.24,437.95z"/>
	<path class="st46" d="M223.54,225.2c-1.99,4.67-3.98,9.34-5.98,14.01C218.61,234.11,220.72,229.55,223.54,225.2z"/>
	<path class="st1" d="M264.18,356.22c-1.26,72.37-9,9.68-5.43-16.41C262.7,314.23,273.93,347.58,264.18,356.22z"/>
	<path class="st1" d="M230.58,228.99c-1.51,72.37-10.76,9.68-6.49-16.41C228.82,187.01,242.23,220.36,230.58,228.99z"/>
</g>
</svg>
